<svg width="26" height="26" viewBox="0 0 26 26" fill="none" xmlns="http://www.w3.org/2000/svg">
<path d="M9.25 25.5C8.91848 25.5 8.60054 25.3683 8.36612 25.1339C8.1317 24.8995 8 24.5815 8 24.25V20.5H3C2.33696 20.5 1.70107 20.2366 1.23223 19.7678C0.763392 19.2989 0.5 18.663 0.5 18V3C0.5 1.6125 1.625 0.5 3 0.5H23C23.663 0.5 24.2989 0.763392 24.7678 1.23223C25.2366 1.70107 25.5 2.33696 25.5 3V18C25.5 18.663 25.2366 19.2989 24.7678 19.7678C24.2989 20.2366 23.663 20.5 23 20.5H15.375L10.75 25.1375C10.5 25.375 10.1875 25.5 9.875 25.5H9.25ZM19.25 11.75V9.25H16.75V11.75H19.25ZM14.25 11.75V9.25H11.75V11.75H14.25ZM9.25 11.75V9.25H6.75V11.75H9.25Z" fill="#5669FF"/>
</svg>

