<svg width="24" height="24" viewBox="0 0 24 24" fill="none" xmlns="http://www.w3.org/2000/svg">
<path d="M4.5 18.25C4.5 15.75 9.5 14.375 12 14.375C14.5 14.375 19.5 15.75 19.5 18.25V19.5H4.5V18.25ZM15.75 8.25C15.75 9.24456 15.3549 10.1984 14.6517 10.9017C13.9484 11.6049 12.9946 12 12 12C11.0054 12 10.0516 11.6049 9.34835 10.9017C8.64509 10.1984 8.25 9.24456 8.25 8.25C8.25 7.25544 8.64509 6.30161 9.34835 5.59835C10.0516 4.89509 11.0054 4.5 12 4.5C12.9946 4.5 13.9484 4.89509 14.6517 5.59835C15.3549 6.30161 15.75 7.25544 15.75 8.25ZM0.75 3.25V20.75C0.75 21.413 1.01339 22.0489 1.48223 22.5178C1.95107 22.9866 2.58696 23.25 3.25 23.25H20.75C21.413 23.25 22.0489 22.9866 22.5178 22.5178C22.9866 22.0489 23.25 21.413 23.25 20.75V3.25C23.25 2.58696 22.9866 1.95107 22.5178 1.48223C22.0489 1.01339 21.413 0.75 20.75 0.75H3.25C1.8625 0.75 0.75 1.875 0.75 3.25Z" fill="white"/>
</svg>

