<svg width="1166" height="98" viewBox="0 0 1166 98" fill="none" xmlns="http://www.w3.org/2000/svg">
<path d="M85.6371 34.5547H65.4169C65.0476 31.9387 64.2936 29.6151 63.1548 27.5838C62.0161 25.5218 60.5542 23.7675 58.7692 22.321C56.9841 20.8745 54.9221 19.7666 52.5831 18.9972C50.2749 18.2277 47.7666 17.843 45.0582 17.843C40.1648 17.843 35.9022 19.0587 32.2706 21.4901C28.639 23.8906 25.8229 27.3991 23.8224 32.0156C21.822 36.6013 20.8217 42.1719 20.8217 48.7273C20.8217 55.4673 21.822 61.1302 23.8224 65.7159C25.8537 70.3016 28.6851 73.764 32.3168 76.103C35.9484 78.442 40.1494 79.6115 44.9197 79.6115C47.5973 79.6115 50.0748 79.2576 52.3523 78.5497C54.6605 77.8419 56.7072 76.8108 58.4922 75.4567C60.2772 74.0717 61.7545 72.3944 62.924 70.4247C64.1243 68.455 64.9553 66.2083 65.4169 63.6847L85.6371 63.777C85.1139 68.1165 83.8059 72.3021 81.7131 76.3338C79.651 80.3348 76.8658 83.9202 73.3572 87.0902C69.8795 90.2294 65.7247 92.7223 60.8928 94.5689C56.0916 96.3847 50.6596 97.2926 44.5966 97.2926C36.1638 97.2926 28.6236 95.3845 21.9759 91.5682C15.3589 87.7519 10.1269 82.2275 6.27983 74.995C2.46354 67.7625 0.555398 59.0066 0.555398 48.7273C0.555398 38.4171 2.49432 29.6458 6.37216 22.4134C10.25 15.1809 15.5128 9.67187 22.1605 5.88636C28.8082 2.07007 36.2869 0.161928 44.5966 0.161928C50.0748 0.161928 55.1529 0.931341 59.831 2.47017C64.5398 4.00899 68.71 6.25568 72.3416 9.21022C75.9732 12.134 78.9278 15.7195 81.2053 19.9666C83.5135 24.2138 84.9908 29.0765 85.6371 34.5547ZM93.4712 96V1.45454H113.461V40.4638H154.039V1.45454H173.983V96H154.039V56.9446H113.461V96H93.4712ZM200.26 96H178.839L211.478 1.45454H237.238L269.83 96H248.409L224.727 23.0597H223.988L200.26 96ZM198.921 58.8374H249.517V74.441H198.921V58.8374ZM259.556 17.9354V1.45454H337.205V17.9354H308.26V96H288.501V17.9354H259.556ZM390.669 96V1.45454H428.524C435.479 1.45454 441.28 2.48556 445.928 4.54758C450.575 6.60961 454.068 9.47183 456.407 13.1342C458.746 16.7659 459.916 20.9515 459.916 25.6911C459.916 29.3842 459.177 32.6312 457.7 35.4318C456.222 38.2017 454.191 40.4792 451.606 42.2642C449.052 44.0185 446.128 45.2649 442.835 46.0035V46.9268C446.436 47.0807 449.806 48.0964 452.945 49.9737C456.115 51.8511 458.685 54.4825 460.654 57.8679C462.624 61.2225 463.609 65.2235 463.609 69.8707C463.609 74.8873 462.362 79.3653 459.869 83.3047C457.407 87.2133 453.76 90.3063 448.928 92.5838C444.097 94.8613 438.141 96 431.063 96H390.669ZM410.658 79.6577H426.954C432.525 79.6577 436.587 78.5959 439.142 76.4723C441.696 74.3179 442.973 71.4557 442.973 67.8857C442.973 65.2696 442.342 62.9614 441.08 60.9609C439.819 58.9605 438.018 57.3909 435.679 56.2521C433.371 55.1134 430.616 54.544 427.416 54.544H410.658V79.6577ZM410.658 41.0178H425.477C428.216 41.0178 430.647 40.5407 432.771 39.5866C434.925 38.6018 436.618 37.2169 437.849 35.4318C439.111 33.6468 439.742 31.5078 439.742 29.0149C439.742 25.5987 438.526 22.8442 436.095 20.7514C433.694 18.6586 430.278 17.6122 425.846 17.6122H410.658V41.0178ZM556.998 48.7273C556.998 59.0374 555.044 67.8087 551.135 75.0412C547.257 82.2737 541.964 87.7981 535.254 91.6143C528.576 95.3999 521.066 97.2926 512.726 97.2926C504.324 97.2926 496.784 95.3845 490.105 91.5682C483.427 87.7519 478.148 82.2275 474.271 74.995C470.393 67.7625 468.454 59.0066 468.454 48.7273C468.454 38.4171 470.393 29.6458 474.271 22.4134C478.148 15.1809 483.427 9.67187 490.105 5.88636C496.784 2.07007 504.324 0.161928 512.726 0.161928C521.066 0.161928 528.576 2.07007 535.254 5.88636C541.964 9.67187 547.257 15.1809 551.135 22.4134C555.044 29.6458 556.998 38.4171 556.998 48.7273ZM536.732 48.7273C536.732 42.0488 535.731 36.4167 533.731 31.831C531.761 27.2453 528.976 23.7675 525.375 21.3977C521.774 19.0279 517.558 17.843 512.726 17.843C507.894 17.843 503.678 19.0279 500.077 21.3977C496.476 23.7675 493.675 27.2453 491.675 31.831C489.705 36.4167 488.72 42.0488 488.72 48.7273C488.72 55.4058 489.705 61.0379 491.675 65.6236C493.675 70.2093 496.476 73.687 500.077 76.0568C503.678 78.4266 507.894 79.6115 512.726 79.6115C517.558 79.6115 521.774 78.4266 525.375 76.0568C528.976 73.687 531.761 70.2093 533.731 65.6236C535.731 61.0379 536.732 55.4058 536.732 48.7273ZM557.388 17.9354V1.45454H635.037V17.9354H606.092V96H586.333V17.9354H557.388ZM664.913 96V1.45454H702.768C709.723 1.45454 715.525 2.48556 720.172 4.54758C724.819 6.60961 728.312 9.47183 730.651 13.1342C732.99 16.7659 734.16 20.9515 734.16 25.6911C734.16 29.3842 733.421 32.6312 731.944 35.4318C730.467 38.2017 728.435 40.4792 725.85 42.2642C723.296 44.0185 720.372 45.2649 717.079 46.0035V46.9268C720.68 47.0807 724.05 48.0964 727.189 49.9737C730.359 51.8511 732.929 54.4825 734.898 57.8679C736.868 61.2225 737.853 65.2235 737.853 69.8707C737.853 74.8873 736.607 79.3653 734.114 83.3047C731.652 87.2133 728.004 90.3063 723.173 92.5838C718.341 94.8613 712.385 96 705.307 96H664.913ZM684.902 79.6577H701.198C706.769 79.6577 710.831 78.5959 713.386 76.4723C715.94 74.3179 717.217 71.4557 717.217 67.8857C717.217 65.2696 716.586 62.9614 715.325 60.9609C714.063 58.9605 712.262 57.3909 709.923 56.2521C707.615 55.1134 704.861 54.544 701.66 54.544H684.902V79.6577ZM684.902 41.0178H699.721C702.46 41.0178 704.891 40.5407 707.015 39.5866C709.169 38.6018 710.862 37.2169 712.093 35.4318C713.355 33.6468 713.986 31.5078 713.986 29.0149C713.986 25.5987 712.77 22.8442 710.339 20.7514C707.938 18.6586 704.522 17.6122 700.09 17.6122H684.902V41.0178ZM802.758 1.45454H822.748V62.8537C822.748 69.7476 821.101 75.7798 817.808 80.9503C814.546 86.1207 809.975 90.1525 804.097 93.0455C798.219 95.9077 791.371 97.3388 783.554 97.3388C775.706 97.3388 768.843 95.9077 762.964 93.0455C757.086 90.1525 752.516 86.1207 749.253 80.9503C745.991 75.7798 744.36 69.7476 744.36 62.8537V1.45454H764.349V61.1456C764.349 64.7464 765.134 67.9472 766.704 70.7479C768.304 73.5485 770.551 75.7491 773.444 77.3494C776.337 78.9498 779.707 79.75 783.554 79.75C787.432 79.75 790.802 78.9498 793.664 77.3494C796.557 75.7491 798.788 73.5485 800.358 70.7479C801.958 67.9472 802.758 64.7464 802.758 61.1456V1.45454ZM852.683 1.45454V96H832.694V1.45454H852.683ZM862.629 96V1.45454H882.619V79.5192H923.151V96H862.629ZM963.405 96H929.889V1.45454H963.682C973.192 1.45454 981.378 3.3473 988.241 7.13281C995.105 10.8875 1000.38 16.2888 1004.08 23.3366C1007.8 30.3845 1009.66 38.8172 1009.66 48.6349C1009.66 58.4834 1007.8 66.947 1004.08 74.0256C1000.38 81.1042 995.074 86.5362 988.149 90.3217C981.255 94.1072 973.007 96 963.405 96ZM949.879 78.8729H962.574C968.483 78.8729 973.453 77.8265 977.485 75.7337C981.548 73.6101 984.594 70.3324 986.626 65.9006C988.688 61.438 989.719 55.6828 989.719 48.6349C989.719 41.6487 988.688 35.9396 986.626 31.5078C984.594 27.076 981.563 23.8137 977.531 21.7209C973.5 19.6281 968.529 18.5817 962.62 18.5817H949.879V78.8729ZM1017.97 96V1.45454H1081.68V17.9354H1037.96V40.4638H1078.4V56.9446H1037.96V79.5192H1081.86V96H1017.97ZM1091.07 96V1.45454H1128.37C1135.51 1.45454 1141.6 2.73177 1146.65 5.28622C1151.73 7.80989 1155.59 11.3954 1158.24 16.0426C1160.92 20.6591 1162.25 26.0911 1162.25 32.3388C1162.25 38.6172 1160.9 44.0185 1158.19 48.5426C1155.48 53.036 1151.56 56.483 1146.42 58.8835C1141.31 61.2841 1135.13 62.4844 1127.86 62.4844H1102.89V46.419H1124.63C1128.45 46.419 1131.62 45.8958 1134.14 44.8494C1136.66 43.803 1138.54 42.2334 1139.77 40.1406C1141.03 38.0478 1141.67 35.4472 1141.67 32.3388C1141.67 29.1996 1141.03 26.5528 1139.77 24.3984C1138.54 22.2441 1136.65 20.6129 1134.09 19.505C1131.57 18.3662 1128.39 17.7969 1124.54 17.7969H1111.06V96H1091.07ZM1142.13 52.9744L1165.62 96H1143.56L1120.57 52.9744H1142.13Z" fill="#F7BD82"/>
<path d="M85.6371 34.5547V47.5547H100.261L98.5475 33.0315L85.6371 34.5547ZM65.4169 34.5547L52.5446 36.372L54.1233 47.5547H65.4169V34.5547ZM63.1548 27.5838L51.7748 33.8683L51.7949 33.9046L51.8152 33.9409L63.1548 27.5838ZM58.7692 22.321L50.5846 32.4211L50.5846 32.4212L58.7692 22.321ZM52.5831 18.9972L48.4721 31.33L48.4965 31.3382L48.5209 31.3462L52.5831 18.9972ZM32.2706 21.4901L39.4392 32.3349L39.4711 32.3138L39.5028 32.2926L32.2706 21.4901ZM23.8224 32.0156L35.738 37.2137L35.7443 37.1991L35.7507 37.1845L23.8224 32.0156ZM23.8224 65.7159L11.9069 70.914L11.9215 70.9475L11.9363 70.9809L23.8224 65.7159ZM32.3168 76.103L25.2776 87.0323H25.2776L32.3168 76.103ZM52.3523 78.5497L48.5408 66.121L48.5173 66.1282L48.4938 66.1355L52.3523 78.5497ZM58.4922 75.4567L66.3492 85.8137L66.4054 85.771L66.4611 85.7278L58.4922 75.4567ZM62.924 70.4247L51.8228 63.6599L51.784 63.7236L51.7459 63.7877L62.924 70.4247ZM65.4169 63.6847L65.4763 50.6848L54.5883 50.6351L52.6291 61.3454L65.4169 63.6847ZM85.6371 63.777L98.5436 65.3331L100.291 50.8438L85.6964 50.7771L85.6371 63.777ZM81.7131 76.3338L70.1749 70.3445L70.1662 70.3614L70.1575 70.3782L81.7131 76.3338ZM73.3572 87.0902L82.0679 96.7403L82.0725 96.7362L73.3572 87.0902ZM60.8928 94.5689L65.4915 106.728L65.5126 106.72L65.5336 106.712L60.8928 94.5689ZM21.9759 91.5682L15.481 102.829L15.4923 102.836L15.5036 102.842L21.9759 91.5682ZM6.27983 74.995L-5.21773 81.0618L-5.20765 81.0809L-5.19751 81.1L6.27983 74.995ZM6.37216 22.4134L17.8292 28.5563L17.8292 28.5563L6.37216 22.4134ZM22.1605 5.88636L28.5934 17.1832L28.6131 17.1719L28.6328 17.1607L22.1605 5.88636ZM59.831 2.47017L55.7688 14.8192L55.7808 14.8231L55.7928 14.8271L59.831 2.47017ZM72.3416 9.21022L64.1375 19.2945L64.1633 19.3155L64.1892 19.3363L72.3416 9.21022ZM81.2053 19.9666L69.7485 26.1101L69.7657 26.1422L69.7831 26.1743L81.2053 19.9666ZM85.6371 21.5547H65.4169V47.5547H85.6371V21.5547ZM78.2893 32.7374C77.7248 28.7391 76.5197 24.8393 74.4945 21.2267L51.8152 33.9409C52.0674 34.3908 52.3704 35.1383 52.5446 36.372L78.2893 32.7374ZM74.5349 21.2993C72.6076 17.8093 70.0729 14.7485 66.9537 12.2209L50.5846 32.4212C51.0355 32.7866 51.4247 33.2342 51.7748 33.8683L74.5349 21.2993ZM66.9538 12.2209C63.857 9.71143 60.3753 7.8751 56.6453 6.64812L48.5209 31.3462C49.4689 31.658 50.1113 32.0376 50.5846 32.4211L66.9538 12.2209ZM56.694 6.66427C52.9194 5.40606 49.0072 4.84304 45.0582 4.84304V30.843C46.5259 30.843 47.6303 31.0494 48.4721 31.33L56.694 6.66427ZM45.0582 4.84304C37.9091 4.84304 31.0608 6.65553 25.0384 10.6875L39.5028 32.2926C40.7436 31.4619 42.4204 30.843 45.0582 30.843V4.84304ZM25.102 10.6452C19.0548 14.6425 14.7373 20.2858 11.8942 26.8467L35.7507 37.1845C36.9085 34.5125 38.2231 33.1388 39.4392 32.3349L25.102 10.6452ZM11.9069 26.8176C9.00617 33.4669 7.82173 40.9123 7.82173 48.7273H33.8217C33.8217 43.4315 34.6378 39.7357 35.738 37.2137L11.9069 26.8176ZM7.82173 48.7273C7.82173 56.6696 8.98892 64.2251 11.9069 70.914L35.738 60.5179C34.655 58.0353 33.8217 54.265 33.8217 48.7273H7.82173ZM11.9363 70.9809C14.8261 77.5047 19.1854 83.1085 25.2776 87.0323L39.356 65.1737C38.1849 64.4194 36.8813 63.0985 35.7086 60.4509L11.9363 70.9809ZM25.2776 87.0323C31.2241 90.8623 37.9228 92.6115 44.9197 92.6115V66.6115C42.3759 66.6115 40.6727 66.0217 39.356 65.1737L25.2776 87.0323ZM44.9197 92.6115C48.7473 92.6115 52.5413 92.1044 56.2107 90.9639L48.4938 66.1355C47.6084 66.4107 46.4473 66.6115 44.9197 66.6115V92.6115ZM56.1637 90.9784C59.8181 89.8578 63.2566 88.1598 66.3492 85.8137L50.6352 65.0997C50.1577 65.4619 49.503 65.826 48.5408 66.121L56.1637 90.9784ZM66.4611 85.7278C69.5525 83.3293 72.1121 80.4133 74.1021 77.0617L51.7459 63.7877C51.3969 64.3755 51.0019 64.8142 50.5232 65.1856L66.4611 85.7278ZM74.0252 77.1895C76.1419 73.7161 77.4887 69.9383 78.2047 66.0239L52.6291 61.3454C52.4219 62.4784 52.1067 63.194 51.8228 63.6599L74.0252 77.1895ZM65.3575 76.6845L85.5777 76.7769L85.6964 50.7771L65.4763 50.6848L65.3575 76.6845ZM72.7305 62.2209C72.4013 64.9521 71.5781 67.6414 70.1749 70.3445L93.2512 82.3231C96.0337 76.9628 97.8265 71.2809 98.5436 65.3331L72.7305 62.2209ZM70.1575 70.3782C68.8482 72.9187 67.0487 75.2698 64.642 77.4442L82.0725 96.7362C86.6828 92.5707 90.4539 87.7508 93.2686 82.2894L70.1575 70.3782ZM64.6466 77.4401C62.4779 79.3977 59.7409 81.0921 56.252 82.4255L65.5336 106.712C71.7084 104.353 77.2811 101.061 82.0679 96.7403L64.6466 77.4401ZM56.294 82.4095C53.2022 83.5788 49.367 84.2926 44.5966 84.2926V110.293C51.9521 110.293 58.981 109.191 65.4915 106.728L56.294 82.4095ZM44.5966 84.2926C38.2015 84.2926 32.9332 82.8686 28.4481 80.2939L15.5036 102.842C24.314 107.9 34.1262 110.293 44.5966 110.293V84.2926ZM28.4707 80.3069C24.1191 77.7971 20.546 74.1331 17.7572 68.8901L-5.19751 81.1C-0.292252 90.3219 6.59875 97.7067 15.481 102.829L28.4707 80.3069ZM17.7774 68.9282C15.1694 63.9856 13.5554 57.4243 13.5554 48.7273H-12.4446C-12.4446 60.5889 -10.2423 71.5395 -5.21773 81.0618L17.7774 68.9282ZM13.5554 48.7273C13.5554 40.022 15.1915 33.4759 17.8292 28.5563L-5.0849 16.2704C-10.2028 25.8158 -12.4446 36.8123 -12.4446 48.7273H13.5554ZM17.8292 28.5563C20.6385 23.3168 24.2278 19.6692 28.5934 17.1832L15.7276 -5.41044C6.79779 -0.325405 -0.138465 7.04491 -5.08491 16.2704L17.8292 28.5563ZM28.6328 17.1607C33.1469 14.5692 38.3612 13.1619 44.5966 13.1619V-12.8381C34.2126 -12.8381 24.4695 -10.4291 15.6882 -5.38792L28.6328 17.1607ZM44.5966 13.1619C48.8485 13.1619 52.5401 13.7571 55.7688 14.8192L63.8932 -9.87887C57.7658 -11.8945 51.3012 -12.8381 44.5966 -12.8381V13.1619ZM55.7928 14.8271C59.0744 15.8995 61.814 17.4042 64.1375 19.2945L80.5458 -0.874037C75.606 -4.89283 70.0052 -7.8815 63.8692 -9.88673L55.7928 14.8271ZM64.1892 19.3363C66.4177 21.1305 68.2661 23.3457 69.7485 26.1101L92.662 13.8231C89.5895 8.09323 85.5288 3.13753 80.494 -0.915903L64.1892 19.3363ZM69.7831 26.1743C71.1984 28.7784 72.2469 32.0117 72.7266 36.0778L98.5475 33.0315C97.7346 26.1412 95.8286 19.6491 92.6274 13.7589L69.7831 26.1743ZM93.4712 96H80.4712V109H93.4712V96ZM93.4712 1.45454V-11.5455H80.4712V1.45454H93.4712ZM113.461 1.45454H126.461V-11.5455H113.461V1.45454ZM113.461 40.4638H100.461V53.4638H113.461V40.4638ZM154.039 40.4638V53.4638H167.039V40.4638H154.039ZM154.039 1.45454V-11.5455H141.039V1.45454H154.039ZM173.983 1.45454H186.983V-11.5455H173.983V1.45454ZM173.983 96V109H186.983V96H173.983ZM154.039 96H141.039V109H154.039V96ZM154.039 56.9446H167.039V43.9446H154.039V56.9446ZM113.461 56.9446V43.9446H100.461V56.9446H113.461ZM113.461 96V109H126.461V96H113.461ZM106.471 96V1.45454H80.4712V96H106.471ZM93.4712 14.4545H113.461V-11.5455H93.4712V14.4545ZM100.461 1.45454V40.4638H126.461V1.45454H100.461ZM113.461 53.4638H154.039V27.4638H113.461V53.4638ZM167.039 40.4638V1.45454H141.039V40.4638H167.039ZM154.039 14.4545H173.983V-11.5455H154.039V14.4545ZM160.983 1.45454V96H186.983V1.45454H160.983ZM173.983 83H154.039V109H173.983V83ZM167.039 96V56.9446H141.039V96H167.039ZM154.039 43.9446H113.461V69.9446H154.039V43.9446ZM100.461 56.9446V96H126.461V56.9446H100.461ZM113.461 83H93.4712V109H113.461V83ZM200.26 96V109H209.701L212.622 100.022L200.26 96ZM178.839 96L166.551 91.7579L160.599 109H178.839V96ZM211.478 1.45454V-11.5455H202.213L199.189 -2.78759L211.478 1.45454ZM237.238 1.45454L249.528 -2.78223L246.507 -11.5455H237.238V1.45454ZM269.83 96V109H288.062L282.12 91.7632L269.83 96ZM248.409 96L236.045 100.015L238.962 109H248.409V96ZM224.727 23.0597L237.092 19.0451L234.174 10.0597H224.727V23.0597ZM223.988 23.0597V10.0597H214.547L211.626 19.038L223.988 23.0597ZM198.921 58.8374V45.8374H185.921V58.8374H198.921ZM249.517 58.8374H262.517V45.8374H249.517V58.8374ZM249.517 74.441V87.441H262.517V74.441H249.517ZM198.921 74.441H185.921V87.441H198.921V74.441ZM200.26 83H178.839V109H200.26V83ZM191.128 100.242L223.766 5.69667L199.189 -2.78759L166.551 91.7579L191.128 100.242ZM211.478 14.4545H237.238V-11.5455H211.478V14.4545ZM224.947 5.69131L257.54 100.237L282.12 91.7632L249.528 -2.78223L224.947 5.69131ZM269.83 83H248.409V109H269.83V83ZM260.774 91.9854L237.092 19.0451L212.362 27.0742L236.045 100.015L260.774 91.9854ZM224.727 10.0597H223.988V36.0597H224.727V10.0597ZM211.626 19.038L187.897 91.9783L212.622 100.022L236.351 27.0813L211.626 19.038ZM198.921 71.8374H249.517V45.8374H198.921V71.8374ZM236.517 58.8374V74.441H262.517V58.8374H236.517ZM249.517 61.441H198.921V87.441H249.517V61.441ZM211.921 74.441V58.8374H185.921V74.441H211.921ZM259.556 17.9354H246.556V30.9354H259.556V17.9354ZM259.556 1.45454V-11.5455H246.556V1.45454H259.556ZM337.205 1.45454H350.205V-11.5455H337.205V1.45454ZM337.205 17.9354V30.9354H350.205V17.9354H337.205ZM308.26 17.9354V4.93537H295.26V17.9354H308.26ZM308.26 96V109H321.26V96H308.26ZM288.501 96H275.501V109H288.501V96ZM288.501 17.9354H301.501V4.93537H288.501V17.9354ZM272.556 17.9354V1.45454H246.556V17.9354H272.556ZM259.556 14.4545H337.205V-11.5455H259.556V14.4545ZM324.205 1.45454V17.9354H350.205V1.45454H324.205ZM337.205 4.93537H308.26V30.9354H337.205V4.93537ZM295.26 17.9354V96H321.26V17.9354H295.26ZM308.26 83H288.501V109H308.26V83ZM301.501 96V17.9354H275.501V96H301.501ZM288.501 4.93537H259.556V30.9354H288.501V4.93537ZM390.668 96H377.668V109H390.668V96ZM390.668 1.45454V-11.5455H377.668V1.45454H390.668ZM445.928 4.54758L440.655 16.4304V16.4304L445.928 4.54758ZM456.407 13.1342L445.451 20.1315L445.464 20.1525L445.478 20.1734L456.407 13.1342ZM457.7 35.4318L469.17 41.5495L469.184 41.5232L469.198 41.4969L457.7 35.4318ZM451.606 42.2642L458.965 52.9805L458.979 52.9712L458.992 52.9619L451.606 42.2642ZM442.835 46.0035L439.99 33.3187L429.835 35.5964V46.0035H442.835ZM442.835 46.9268H429.835V59.3832L442.28 59.915L442.835 46.9268ZM452.945 49.9737L446.272 61.1308L446.296 61.1451L446.32 61.1593L452.945 49.9737ZM460.654 57.8679L449.418 64.4055L449.431 64.4279L449.444 64.4502L460.654 57.8679ZM459.87 83.3047L448.884 76.3531L448.877 76.3644L448.87 76.3758L459.87 83.3047ZM448.928 92.5838L443.386 80.8246L448.928 92.5838ZM410.658 79.6577H397.658V92.6577H410.658V79.6577ZM439.142 76.4723L447.452 86.469L447.487 86.4396L447.523 86.4099L439.142 76.4723ZM441.08 60.9609L430.085 67.8965V67.8965L441.08 60.9609ZM435.679 56.2521L429.928 67.9106L429.958 67.9257L429.989 67.9406L435.679 56.2521ZM410.658 54.544V41.544H397.658V54.544H410.658ZM410.658 41.0178H397.658V54.0178H410.658V41.0178ZM432.771 39.5866L438.098 51.4448L438.137 51.4275L438.176 51.4098L432.771 39.5866ZM437.849 35.4318L427.233 27.9278L427.19 27.9893L427.147 28.0513L437.849 35.4318ZM436.095 20.7514L427.552 30.5505L427.583 30.5774L427.614 30.6041L436.095 20.7514ZM410.658 17.6122V4.61221H397.658V17.6122H410.658ZM403.668 96V1.45454H377.668V96H403.668ZM390.668 14.4545H428.524V-11.5455H390.668V14.4545ZM428.524 14.4545C434.291 14.4545 438.16 15.3231 440.655 16.4304L451.2 -7.33521C444.401 -10.352 436.667 -11.5455 428.524 -11.5455V14.4545ZM440.655 16.4304C443.375 17.637 444.706 18.9658 445.451 20.1315L467.363 6.13699C463.43 -0.0221424 457.775 -4.4178 451.2 -7.33521L440.655 16.4304ZM445.478 20.1734C446.335 21.5039 446.916 23.196 446.916 25.6911H472.916C472.916 18.7069 471.158 12.0278 467.336 6.09503L445.478 20.1734ZM446.916 25.6911C446.916 27.623 446.54 28.7243 446.201 29.3667L469.198 41.4969C471.814 36.538 472.916 31.1455 472.916 25.6911H446.916ZM446.229 29.3142C445.729 30.2519 445.099 30.9594 444.22 31.5665L458.992 52.9619C463.284 49.9989 466.716 46.1515 469.17 41.5495L446.229 29.3142ZM444.247 31.5479C443.175 32.2839 441.811 32.9102 439.99 33.3187L445.68 58.6884C450.445 57.6196 454.928 55.753 458.965 52.9805L444.247 31.5479ZM429.835 46.0035V46.9268H455.835V46.0035H429.835ZM442.28 59.915C443.688 59.9752 444.96 60.3456 446.272 61.1308L459.617 38.8167C454.652 35.8471 449.184 34.1863 443.39 33.9387L442.28 59.915ZM446.32 61.1593C447.461 61.8347 448.491 62.8124 449.418 64.4055L471.891 51.3303C468.878 46.1525 464.769 41.8675 459.569 38.7882L446.32 61.1593ZM449.444 64.4502C450.032 65.4523 450.609 67.0856 450.609 69.8707H476.609C476.609 63.3614 475.216 56.9927 471.865 51.2856L449.444 64.4502ZM450.609 69.8707C450.609 72.6213 449.96 74.6524 448.884 76.3531L470.855 90.2563C474.764 84.0781 476.609 77.1533 476.609 69.8707H450.609ZM448.87 76.3758C447.925 77.8753 446.334 79.4351 443.386 80.8246L454.471 104.343C461.187 101.178 466.889 96.5514 470.869 90.2336L448.87 76.3758ZM443.386 80.8246C440.755 82.0646 436.819 83 431.063 83V109C439.463 109 447.438 107.658 454.471 104.343L443.386 80.8246ZM431.063 83H390.668V109H431.063V83ZM410.658 92.6577H426.954V66.6577H410.658V92.6577ZM426.954 92.6577C433.672 92.6577 441.436 91.4703 447.452 86.469L430.831 66.4756C431.352 66.0421 431.551 66.1114 430.892 66.2838C430.217 66.4601 428.967 66.6577 426.954 66.6577V92.6577ZM447.523 86.4099C453.227 81.5993 455.973 74.9886 455.973 67.8857H429.973C429.973 68.0985 429.942 67.865 430.144 67.4123C430.238 67.2001 430.358 67.0019 430.487 66.8328C430.614 66.6662 430.719 66.5698 430.76 66.5347L447.523 86.4099ZM455.973 67.8857C455.973 63.0841 454.784 58.3186 452.076 54.0254L430.085 67.8965C430.058 67.8537 430.031 67.8027 430.006 67.7475C429.982 67.6924 429.968 67.6477 429.96 67.6201C429.953 67.593 429.955 67.595 429.96 67.6335C429.965 67.6726 429.973 67.7546 429.973 67.8857H455.973ZM452.076 54.0254C449.395 49.776 445.66 46.6525 441.37 44.5637L429.989 67.9406C430.106 67.9979 430.179 68.0417 430.215 68.0654C430.251 68.0888 430.256 68.0957 430.241 68.0824C430.225 68.0688 430.198 68.0428 430.166 68.0052C430.133 67.9674 430.106 67.9295 430.085 67.8965L452.076 54.0254ZM441.431 44.5937C436.951 42.3839 432.136 41.544 427.416 41.544V67.544C429.097 67.544 429.79 67.8429 429.928 67.9106L441.431 44.5937ZM427.416 41.544H410.658V67.544H427.416V41.544ZM397.658 54.544V79.6577H423.658V54.544H397.658ZM410.658 54.0178H425.477V28.0178H410.658V54.0178ZM425.477 54.0178C429.732 54.0178 434.03 53.2727 438.098 51.4448L427.443 27.7285C427.265 27.8087 426.7 28.0178 425.477 28.0178V54.0178ZM438.176 51.4098C442.261 49.5424 445.866 46.7055 448.551 42.8123L427.147 28.0513C427.185 27.9963 427.231 27.9383 427.283 27.8818C427.335 27.8254 427.384 27.7806 427.424 27.7479C427.509 27.6784 427.513 27.6964 427.366 27.7635L438.176 51.4098ZM448.464 42.9359C451.489 38.6568 452.742 33.8041 452.742 29.0149H426.742C426.742 29.1609 426.724 29.0669 426.8 28.8109C426.879 28.54 427.024 28.2239 427.233 27.9278L448.464 42.9359ZM452.742 29.0149C452.742 22.0923 450.081 15.6376 444.575 10.8987L427.614 30.6041C427.462 30.4732 427.16 30.1425 426.937 29.6358C426.723 29.1507 426.742 28.8714 426.742 29.0149H452.742ZM444.637 10.9524C439.085 6.11174 432.192 4.61221 425.846 4.61221V30.6122C427.068 30.6122 427.705 30.7597 427.925 30.827C428.1 30.8808 427.887 30.8422 427.552 30.5505L444.637 10.9524ZM425.846 4.61221H410.658V30.6122H425.846V4.61221ZM397.658 17.6122V41.0178H423.658V17.6122H397.658ZM551.135 75.0412L539.698 68.8605L539.688 68.8794L539.678 68.8983L551.135 75.0412ZM535.254 91.6143L541.665 102.924L541.673 102.919L541.682 102.914L535.254 91.6143ZM490.105 91.5682L496.555 80.281L490.105 91.5682ZM474.271 74.995L462.814 81.138L474.271 74.995ZM474.271 22.4134L485.728 28.5563V28.5563L474.271 22.4134ZM490.105 5.88636L496.516 17.1959L496.535 17.1847L496.555 17.1735L490.105 5.88636ZM535.254 5.88636L528.804 17.1735L528.835 17.1911L528.866 17.2085L535.254 5.88636ZM551.135 22.4134L539.678 28.5563L539.688 28.5752L539.698 28.5941L551.135 22.4134ZM533.731 31.831L521.786 36.9616L521.801 36.9953L521.815 37.029L533.731 31.831ZM525.375 21.3977L518.228 32.257V32.257L525.375 21.3977ZM500.077 21.3977L507.223 32.257V32.257L500.077 21.3977ZM491.675 31.831L479.759 26.6329L479.744 26.6666L479.73 26.7003L491.675 31.831ZM491.675 65.6236L479.73 70.7542L479.744 70.788L479.759 70.8216L491.675 65.6236ZM500.077 76.0568L507.223 65.1975L500.077 76.0568ZM525.375 76.0568L518.228 65.1975L525.375 76.0568ZM533.731 65.6236L521.815 60.4255L521.801 60.4592L521.786 60.493L533.731 65.6236ZM543.998 48.7273C543.998 57.4176 542.352 63.9496 539.698 68.8605L562.572 81.2219C567.735 71.6678 569.998 60.6572 569.998 48.7273H543.998ZM539.678 68.8983C536.881 74.1149 533.271 77.7866 528.827 80.3144L541.682 102.914C550.656 97.8095 557.633 90.4325 562.592 81.1841L539.678 68.8983ZM528.844 80.3048C524.287 82.8877 519.019 84.2926 512.726 84.2926V110.293C523.113 110.293 532.865 107.912 541.665 102.924L528.844 80.3048ZM512.726 84.2926C506.371 84.2926 501.091 82.8729 496.555 80.281L483.655 102.855C492.476 107.896 502.276 110.293 512.726 110.293V84.2926ZM496.555 80.281C492.138 77.7573 488.533 74.084 485.728 68.8521L462.814 81.138C467.764 90.371 474.715 97.7465 483.655 102.855L496.555 80.281ZM485.728 68.8521C483.087 63.9273 481.454 57.3944 481.454 48.7273H455.454C455.454 60.6188 457.698 71.5978 462.814 81.138L485.728 68.8521ZM481.454 48.7273C481.454 40.022 483.09 33.4759 485.728 28.5563L462.814 16.2704C457.696 25.8158 455.454 36.8123 455.454 48.7273H481.454ZM485.728 28.5563C488.529 23.3322 492.122 19.6861 496.516 17.1959L483.695 -5.42318C474.731 -0.342329 467.768 7.02955 462.814 16.2704L485.728 28.5563ZM496.555 17.1735C501.091 14.5816 506.371 13.1619 512.726 13.1619V-12.8381C502.276 -12.8381 492.476 -10.4415 483.655 -5.40079L496.555 17.1735ZM512.726 13.1619C519 13.1619 524.254 14.5733 528.804 17.1735L541.704 -5.40079C532.897 -10.4332 523.132 -12.8381 512.726 -12.8381V13.1619ZM528.866 17.2085C533.287 19.7029 536.885 23.3475 539.678 28.5563L562.592 16.2704C557.629 7.0142 550.64 -0.359159 541.642 -5.43579L528.866 17.2085ZM539.698 28.5941C542.352 33.505 543.998 40.0369 543.998 48.7273H569.998C569.998 36.7974 567.735 25.7867 562.572 16.2326L539.698 28.5941ZM549.732 48.7273C549.732 40.8275 548.559 33.3088 545.646 26.6329L521.815 37.029C522.904 39.5245 523.732 43.2701 523.732 48.7273H549.732ZM545.676 26.7003C542.864 20.1547 538.568 14.5173 532.522 10.5384L518.228 32.257C519.384 33.0177 520.658 34.3358 521.786 36.9616L545.676 26.7003ZM532.522 10.5384C526.548 6.60715 519.78 4.84304 512.726 4.84304V30.843C515.335 30.843 517 31.4487 518.228 32.257L532.522 10.5384ZM512.726 4.84304C505.671 4.84304 498.903 6.60715 492.93 10.5384L507.223 32.257C508.452 31.4487 510.116 30.843 512.726 30.843V4.84304ZM492.93 10.5384C486.904 14.5046 482.602 20.1173 479.759 26.6329L503.59 37.029C504.749 34.3733 506.048 33.0305 507.223 32.257L492.93 10.5384ZM479.73 26.7003C476.871 33.3554 475.72 40.8489 475.72 48.7273H501.72C501.72 43.2487 502.539 39.4779 503.619 36.9616L479.73 26.7003ZM475.72 48.7273C475.72 56.6057 476.871 64.0991 479.73 70.7542L503.619 60.493C502.539 57.9766 501.72 54.2059 501.72 48.7273H475.72ZM479.759 70.8216C482.602 77.3373 486.904 82.95 492.93 86.9161L507.223 65.1975C506.048 64.4241 504.749 63.0813 503.59 60.4255L479.759 70.8216ZM492.93 86.9161C498.903 90.8474 505.671 92.6115 512.726 92.6115V66.6115C510.116 66.6115 508.452 66.0058 507.223 65.1975L492.93 86.9161ZM512.726 92.6115C519.78 92.6115 526.548 90.8474 532.522 86.9161L518.228 65.1975C517 66.0058 515.335 66.6115 512.726 66.6115V92.6115ZM532.522 86.9161C538.568 82.9372 542.864 77.2998 545.676 70.7542L521.786 60.493C520.658 63.1188 519.384 64.4368 518.228 65.1975L532.522 86.9161ZM545.646 70.8216C548.559 64.1457 549.732 56.6271 549.732 48.7273H523.732C523.732 54.1845 522.904 57.93 521.815 60.4255L545.646 70.8216ZM557.388 17.9354H544.388V30.9354H557.388V17.9354ZM557.388 1.45454V-11.5455H544.388V1.45454H557.388ZM635.037 1.45454H648.037V-11.5455H635.037V1.45454ZM635.037 17.9354V30.9354H648.037V17.9354H635.037ZM606.092 17.9354V4.93537H593.092V17.9354H606.092ZM606.092 96V109H619.092V96H606.092ZM586.333 96H573.333V109H586.333V96ZM586.333 17.9354H599.333V4.93537H586.333V17.9354ZM570.388 17.9354V1.45454H544.388V17.9354H570.388ZM557.388 14.4545H635.037V-11.5455H557.388V14.4545ZM622.037 1.45454V17.9354H648.037V1.45454H622.037ZM635.037 4.93537H606.092V30.9354H635.037V4.93537ZM593.092 17.9354V96H619.092V17.9354H593.092ZM606.092 83H586.333V109H606.092V83ZM599.333 96V17.9354H573.333V96H599.333ZM586.333 4.93537H557.388V30.9354H586.333V4.93537ZM664.913 96H651.913V109H664.913V96ZM664.913 1.45454V-11.5455H651.913V1.45454H664.913ZM720.172 4.54758L714.899 16.4304V16.4304L720.172 4.54758ZM730.651 13.1342L719.695 20.1315L719.708 20.1525L719.722 20.1734L730.651 13.1342ZM731.944 35.4318L743.414 41.5495L743.428 41.5232L743.442 41.4969L731.944 35.4318ZM725.85 42.2642L733.21 52.9805L733.223 52.9712L733.237 52.9619L725.85 42.2642ZM717.079 46.0035L714.234 33.3187L704.079 35.5964V46.0035H717.079ZM717.079 46.9268H704.079V59.3832L716.524 59.915L717.079 46.9268ZM727.189 49.9737L720.517 61.1308L720.54 61.1451L720.564 61.1593L727.189 49.9737ZM734.898 57.8679L723.662 64.4055L723.675 64.4279L723.688 64.4502L734.898 57.8679ZM734.114 83.3047L723.128 76.3531L723.121 76.3644L723.114 76.3758L734.114 83.3047ZM723.173 92.5838L717.63 80.8246L723.173 92.5838ZM684.902 79.6577H671.902V92.6577H684.902V79.6577ZM713.386 76.4723L721.696 86.469L721.732 86.4396L721.767 86.4099L713.386 76.4723ZM715.325 60.9609L704.329 67.8965V67.8965L715.325 60.9609ZM709.923 56.2521L704.172 67.9106L704.202 67.9257L704.233 67.9406L709.923 56.2521ZM684.902 54.544V41.544H671.902V54.544H684.902ZM684.902 41.0178H671.902V54.0178H684.902V41.0178ZM707.015 39.5866L712.343 51.4448L712.381 51.4275L712.42 51.4098L707.015 39.5866ZM712.093 35.4318L701.478 27.9278L701.434 27.9893L701.391 28.0513L712.093 35.4318ZM710.339 20.7514L701.796 30.5505L701.827 30.5774L701.858 30.6041L710.339 20.7514ZM684.902 17.6122V4.61221H671.902V17.6122H684.902ZM677.913 96V1.45454H651.913V96H677.913ZM664.913 14.4545H702.768V-11.5455H664.913V14.4545ZM702.768 14.4545C708.536 14.4545 712.404 15.3231 714.899 16.4304L725.444 -7.33521C718.645 -10.352 710.911 -11.5455 702.768 -11.5455V14.4545ZM714.899 16.4304C717.619 17.637 718.951 18.9658 719.695 20.1315L741.607 6.13699C737.674 -0.0221424 732.019 -4.4178 725.444 -7.33521L714.899 16.4304ZM719.722 20.1734C720.579 21.5039 721.16 23.196 721.16 25.6911H747.16C747.16 18.7069 745.402 12.0278 741.581 6.09503L719.722 20.1734ZM721.16 25.6911C721.16 27.623 720.784 28.7243 720.445 29.3667L743.442 41.4969C746.058 36.538 747.16 31.1455 747.16 25.6911H721.16ZM720.473 29.3142C719.973 30.2519 719.343 30.9594 718.464 31.5665L733.237 52.9619C737.528 49.9989 740.96 46.1515 743.414 41.5495L720.473 29.3142ZM718.491 31.5479C717.419 32.2839 716.055 32.9102 714.234 33.3187L719.924 58.6884C724.689 57.6196 729.172 55.753 733.21 52.9805L718.491 31.5479ZM704.079 46.0035V46.9268H730.079V46.0035H704.079ZM716.524 59.915C717.932 59.9752 719.204 60.3456 720.517 61.1308L733.861 38.8167C728.896 35.8471 723.428 34.1863 717.634 33.9387L716.524 59.915ZM720.564 61.1593C721.705 61.8347 722.735 62.8124 723.662 64.4055L746.135 51.3303C743.122 46.1525 739.013 41.8675 733.813 38.7882L720.564 61.1593ZM723.688 64.4502C724.276 65.4523 724.853 67.0856 724.853 69.8707H750.853C750.853 63.3614 749.46 56.9927 746.109 51.2856L723.688 64.4502ZM724.853 69.8707C724.853 72.6213 724.205 74.6524 723.128 76.3531L745.099 90.2563C749.008 84.0781 750.853 77.1533 750.853 69.8707H724.853ZM723.114 76.3758C722.17 77.8753 720.578 79.4351 717.63 80.8246L728.715 104.343C735.431 101.178 741.133 96.5514 745.113 90.2336L723.114 76.3758ZM717.63 80.8246C714.999 82.0646 711.064 83 705.307 83V109C713.707 109 721.682 107.658 728.715 104.343L717.63 80.8246ZM705.307 83H664.913V109H705.307V83ZM684.902 92.6577H701.198V66.6577H684.902V92.6577ZM701.198 92.6577C707.916 92.6577 715.68 91.4703 721.696 86.469L705.075 66.4756C705.597 66.0421 705.795 66.1114 705.136 66.2838C704.461 66.4601 703.212 66.6577 701.198 66.6577V92.6577ZM721.767 86.4099C727.471 81.5993 730.217 74.9886 730.217 67.8857H704.217C704.217 68.0985 704.186 67.865 704.388 67.4123C704.482 67.2001 704.602 67.0019 704.731 66.8328C704.858 66.6662 704.963 66.5698 705.005 66.5347L721.767 86.4099ZM730.217 67.8857C730.217 63.0841 729.028 58.3186 726.32 54.0254L704.329 67.8965C704.302 67.8537 704.275 67.8027 704.25 67.7475C704.226 67.6924 704.212 67.6477 704.204 67.6201C704.197 67.593 704.2 67.595 704.204 67.6335C704.209 67.6726 704.217 67.7546 704.217 67.8857H730.217ZM726.32 54.0254C723.64 49.776 719.904 46.6525 715.614 44.5637L704.233 67.9406C704.351 67.9979 704.423 68.0417 704.459 68.0654C704.495 68.0888 704.5 68.0957 704.485 68.0824C704.469 68.0688 704.442 68.0428 704.41 68.0052C704.378 67.9674 704.35 67.9295 704.329 67.8965L726.32 54.0254ZM715.675 44.5937C711.196 42.3839 706.38 41.544 701.66 41.544V67.544C703.341 67.544 704.035 67.8429 704.172 67.9106L715.675 44.5937ZM701.66 41.544H684.902V67.544H701.66V41.544ZM671.902 54.544V79.6577H697.902V54.544H671.902ZM684.902 54.0178H699.721V28.0178H684.902V54.0178ZM699.721 54.0178C703.976 54.0178 708.274 53.2727 712.343 51.4448L701.687 27.7285C701.509 27.8087 700.944 28.0178 699.721 28.0178V54.0178ZM712.42 51.4098C716.505 49.5424 720.11 46.7055 722.795 42.8123L701.391 28.0513C701.429 27.9963 701.475 27.9383 701.527 27.8818C701.579 27.8254 701.628 27.7806 701.668 27.7479C701.753 27.6784 701.757 27.6964 701.61 27.7635L712.42 51.4098ZM722.709 42.9359C725.733 38.6568 726.986 33.8041 726.986 29.0149H700.986C700.986 29.1609 700.968 29.0669 701.044 28.8109C701.124 28.54 701.268 28.2239 701.478 27.9278L722.709 42.9359ZM726.986 29.0149C726.986 22.0923 724.325 15.6376 718.82 10.8987L701.858 30.6041C701.706 30.4732 701.404 30.1425 701.181 29.6358C700.967 29.1507 700.986 28.8714 700.986 29.0149H726.986ZM718.882 10.9524C713.329 6.11174 706.437 4.61221 700.09 4.61221V30.6122C701.312 30.6122 701.949 30.7597 702.169 30.827C702.344 30.8808 702.131 30.8422 701.796 30.5505L718.882 10.9524ZM700.09 4.61221H684.902V30.6122H700.09V4.61221ZM671.902 17.6122V41.0178H697.902V17.6122H671.902ZM802.758 1.45454V-11.5455H789.758V1.45454H802.758ZM822.748 1.45454H835.748V-11.5455H822.748V1.45454ZM817.808 80.9503L806.843 73.9667L806.828 73.99L806.814 74.0133L817.808 80.9503ZM804.097 93.0455L809.788 104.734L809.813 104.722L809.838 104.709L804.097 93.0455ZM762.964 93.0455L757.224 104.709L757.249 104.722L757.273 104.734L762.964 93.0455ZM749.253 80.9503L738.259 87.8873L749.253 80.9503ZM744.36 1.45454V-11.5455H731.36V1.45454H744.36ZM764.349 1.45454H777.349V-11.5455H764.349V1.45454ZM766.704 70.7479L755.363 77.1035L755.39 77.1507L755.417 77.1977L766.704 70.7479ZM773.444 77.3494L767.151 88.7249L767.151 88.7249L773.444 77.3494ZM793.664 77.3494L787.371 65.974L787.345 65.9883L787.319 66.0027L793.664 77.3494ZM800.358 70.7479L789.071 64.2981L789.044 64.345L789.017 64.3922L800.358 70.7479ZM802.758 14.4545H822.748V-11.5455H802.758V14.4545ZM809.748 1.45454V62.8537H835.748V1.45454H809.748ZM809.748 62.8537C809.748 67.5911 808.646 71.1356 806.843 73.9667L828.773 87.9339C833.556 80.424 835.748 71.9042 835.748 62.8537H809.748ZM806.814 74.0133C804.925 77.0069 802.241 79.4697 798.357 81.3815L809.838 104.709C817.71 100.835 824.167 95.2346 828.803 87.8873L806.814 74.0133ZM798.406 81.3574C794.615 83.2035 789.781 84.3388 783.554 84.3388V110.339C792.961 110.339 801.823 108.612 809.788 104.734L798.406 81.3574ZM783.554 84.3388C777.287 84.3388 772.44 83.2003 768.655 81.3574L757.273 104.734C765.245 108.615 774.124 110.339 783.554 110.339V84.3388ZM768.705 81.3815C764.82 79.4697 762.137 77.0069 760.248 74.0133L738.259 87.8873C742.895 95.2346 749.352 100.835 757.224 104.709L768.705 81.3815ZM760.248 74.0133C758.458 71.1761 757.36 67.6146 757.36 62.8537H731.36C731.36 71.8807 733.524 80.3836 738.259 87.8873L760.248 74.0133ZM757.36 62.8537V1.45454H731.36V62.8537H757.36ZM744.36 14.4545H764.349V-11.5455H744.36V14.4545ZM751.349 1.45454V61.1456H777.349V1.45454H751.349ZM751.349 61.1456C751.349 66.6964 752.578 72.1342 755.363 77.1035L778.044 64.3922C777.69 63.7602 777.349 62.7965 777.349 61.1456H751.349ZM755.417 77.1977C758.229 82.1205 762.228 86.0015 767.151 88.7249L779.737 65.974C778.873 65.4966 778.379 64.9766 777.991 64.2981L755.417 77.1977ZM767.151 88.7249C772.264 91.5536 777.868 92.75 783.554 92.75V66.75C781.545 66.75 780.409 66.3461 779.737 65.974L767.151 88.7249ZM783.554 92.75C789.246 92.75 794.881 91.5631 800.008 88.6962L787.319 66.0027C786.722 66.3365 785.617 66.75 783.554 66.75V92.75ZM799.957 88.7249C804.9 85.9902 808.909 82.0797 811.698 77.1035L789.017 64.3922C788.667 65.0174 788.214 65.5079 787.371 65.974L799.957 88.7249ZM811.645 77.1977C814.494 72.2117 815.758 66.7399 815.758 61.1456H789.758C789.758 62.753 789.422 63.6827 789.071 64.2981L811.645 77.1977ZM815.758 61.1456V1.45454H789.758V61.1456H815.758ZM852.683 1.45454H865.683V-11.5455H852.683V1.45454ZM852.683 96V109H865.683V96H852.683ZM832.694 96H819.694V109H832.694V96ZM832.694 1.45454V-11.5455H819.694V1.45454H832.694ZM839.683 1.45454V96H865.683V1.45454H839.683ZM852.683 83H832.694V109H852.683V83ZM845.694 96V1.45454H819.694V96H845.694ZM832.694 14.4545H852.683V-11.5455H832.694V14.4545ZM862.629 96H849.629V109H862.629V96ZM862.629 1.45454V-11.5455H849.629V1.45454H862.629ZM882.619 1.45454H895.619V-11.5455H882.619V1.45454ZM882.619 79.5192H869.619V92.5192H882.619V79.5192ZM923.151 79.5192H936.151V66.5192H923.151V79.5192ZM923.151 96V109H936.151V96H923.151ZM875.629 96V1.45454H849.629V96H875.629ZM862.629 14.4545H882.619V-11.5455H862.629V14.4545ZM869.619 1.45454V79.5192H895.619V1.45454H869.619ZM882.619 92.5192H923.151V66.5192H882.619V92.5192ZM910.151 79.5192V96H936.151V79.5192H910.151ZM923.151 83H862.629V109H923.151V83ZM929.889 96H916.889V109H929.889V96ZM929.889 1.45454V-11.5455H916.889V1.45454H929.889ZM988.241 7.13281L981.963 18.5161L981.982 18.5269L982.002 18.5376L988.241 7.13281ZM1004.08 23.3366L992.561 29.3706L992.571 29.3903L992.582 29.41L1004.08 23.3366ZM1004.08 74.0256L992.571 67.9729L992.561 67.9926L992.55 68.0122L1004.08 74.0256ZM988.149 90.3217L981.913 78.9149L981.903 78.9208L981.892 78.9266L988.149 90.3217ZM949.879 78.8729H936.879V91.8729H949.879V78.8729ZM977.485 75.7337L983.474 87.2718L983.491 87.2632L983.507 87.2546L977.485 75.7337ZM986.626 65.9006L974.825 60.4477L974.816 60.4658L974.808 60.4841L986.626 65.9006ZM986.626 31.5078L974.808 36.9243L974.823 36.9581L974.839 36.9919L986.626 31.5078ZM977.531 21.7209L983.521 10.1827V10.1827L977.531 21.7209ZM949.879 18.5817V5.58168H936.879V18.5817H949.879ZM963.405 83H929.889V109H963.405V83ZM942.889 96V1.45454H916.889V96H942.889ZM929.889 14.4545H963.682V-11.5455H929.889V14.4545ZM963.682 14.4545C971.461 14.4545 977.393 15.9952 981.963 18.5161L994.52 -4.25044C985.364 -9.30063 974.922 -11.5455 963.682 -11.5455V14.4545ZM982.002 18.5376C986.575 21.0394 990.037 24.5529 992.561 29.3706L1015.59 17.3027C1010.73 8.02474 1003.63 0.735697 994.481 -4.27201L982.002 18.5376ZM992.582 29.41C995.113 34.201 996.662 40.4508 996.662 48.6349H1022.66C1022.66 37.1837 1020.49 26.568 1015.57 17.2633L992.582 29.41ZM996.662 48.6349C996.662 56.8552 995.111 63.1442 992.571 67.9729L1015.58 80.0782C1020.49 70.7497 1022.66 60.1117 1022.66 48.6349H996.662ZM992.55 68.0122C990.033 72.8374 986.552 76.3792 981.913 78.9149L994.385 101.729C1003.6 96.6932 1010.73 89.3709 1015.6 80.0389L992.55 68.0122ZM981.892 78.9266C977.296 81.4505 971.299 83 963.405 83V109C974.716 109 985.215 106.764 994.406 101.717L981.892 78.9266ZM949.879 91.8729H962.574V65.8729H949.879V91.8729ZM962.574 91.8729C969.961 91.8729 977.12 90.5701 983.474 87.2718L971.496 64.1955C969.786 65.0828 967.005 65.8729 962.574 65.8729V91.8729ZM983.507 87.2546C990.294 83.7073 995.293 78.1921 998.444 71.3171L974.808 60.4841C973.896 62.4727 972.802 63.5129 971.463 64.2127L983.507 87.2546ZM998.427 71.3535C1001.54 64.607 1002.72 56.8091 1002.72 48.6349H976.719C976.719 54.5564 975.831 58.269 974.825 60.4477L998.427 71.3535ZM1002.72 48.6349C1002.72 40.5088 1001.54 32.7466 998.412 26.0238L974.839 36.9919C975.835 39.1327 976.719 42.7885 976.719 48.6349H1002.72ZM998.444 26.0913C995.3 19.2325 990.317 13.7106 983.521 10.1827L971.542 33.259C972.809 33.9168 973.889 34.9195 974.808 36.9243L998.444 26.0913ZM983.521 10.1827C977.166 6.8844 970.008 5.58168 962.62 5.58168V31.5817C967.051 31.5817 969.833 32.3718 971.542 33.259L983.521 10.1827ZM962.62 5.58168H949.879V31.5817H962.62V5.58168ZM936.879 18.5817V78.8729H962.879V18.5817H936.879ZM1017.97 96H1004.97V109H1017.97V96ZM1017.97 1.45454V-11.5455H1004.97V1.45454H1017.97ZM1081.68 1.45454H1094.68V-11.5455H1081.68V1.45454ZM1081.68 17.9354V30.9354H1094.68V17.9354H1081.68ZM1037.96 17.9354V4.93537H1024.96V17.9354H1037.96ZM1037.96 40.4638H1024.96V53.4638H1037.96V40.4638ZM1078.4 40.4638H1091.4V27.4638H1078.4V40.4638ZM1078.4 56.9446V69.9446H1091.4V56.9446H1078.4ZM1037.96 56.9446V43.9446H1024.96V56.9446H1037.96ZM1037.96 79.5192H1024.96V92.5192H1037.96V79.5192ZM1081.86 79.5192H1094.86V66.5192H1081.86V79.5192ZM1081.86 96V109H1094.86V96H1081.86ZM1030.97 96V1.45454H1004.97V96H1030.97ZM1017.97 14.4545H1081.68V-11.5455H1017.97V14.4545ZM1068.68 1.45454V17.9354H1094.68V1.45454H1068.68ZM1081.68 4.93537H1037.96V30.9354H1081.68V4.93537ZM1024.96 17.9354V40.4638H1050.96V17.9354H1024.96ZM1037.96 53.4638H1078.4V27.4638H1037.96V53.4638ZM1065.4 40.4638V56.9446H1091.4V40.4638H1065.4ZM1078.4 43.9446H1037.96V69.9446H1078.4V43.9446ZM1024.96 56.9446V79.5192H1050.96V56.9446H1024.96ZM1037.96 92.5192H1081.86V66.5192H1037.96V92.5192ZM1068.86 79.5192V96H1094.86V79.5192H1068.86ZM1081.86 83H1017.97V109H1081.86V83ZM1091.07 96H1078.07V109H1091.07V96ZM1091.07 1.45454V-11.5455H1078.07V1.45454H1091.07ZM1146.65 5.28622L1140.78 16.8853L1140.82 16.9067L1140.87 16.9278L1146.65 5.28622ZM1158.24 16.0426L1146.94 22.4763L1146.97 22.5207L1146.99 22.565L1158.24 16.0426ZM1158.19 48.5426L1169.33 55.2535L1169.34 55.2367L1169.35 55.2199L1158.19 48.5426ZM1146.42 58.8835L1140.92 47.1049L1140.91 47.1113L1140.89 47.1177L1146.42 58.8835ZM1102.89 62.4844H1089.89V75.4844H1102.89V62.4844ZM1102.89 46.419V33.419H1089.89V46.419H1102.89ZM1134.14 44.8494L1139.12 56.8581V56.8581L1134.14 44.8494ZM1139.77 40.1406L1128.64 33.4281L1128.6 33.4885L1128.57 33.5494L1139.77 40.1406ZM1139.77 24.3984L1128.49 30.8482L1128.52 30.9086L1128.56 30.9687L1139.77 24.3984ZM1134.09 19.505L1128.75 31.3545L1128.83 31.3936L1128.92 31.4314L1134.09 19.505ZM1111.06 17.7969V4.79688H1098.06V17.7969H1111.06ZM1111.06 96V109H1124.06V96H1111.06ZM1142.13 52.9744L1153.54 46.7434L1149.84 39.9744H1142.13V52.9744ZM1165.62 96V109H1187.54L1177.03 89.7689L1165.62 96ZM1143.56 96L1132.09 102.127L1135.77 109H1143.56V96ZM1120.57 52.9744V39.9744H1098.88L1109.1 59.101L1120.57 52.9744ZM1104.07 96V1.45454H1078.07V96H1104.07ZM1091.07 14.4545H1128.37V-11.5455H1091.07V14.4545ZM1128.37 14.4545C1133.99 14.4545 1137.97 15.4615 1140.78 16.8853L1152.52 -6.3129C1145.24 -9.99793 1137.03 -11.5455 1128.37 -11.5455V14.4545ZM1140.87 16.9278C1143.78 18.3747 1145.65 20.2125 1146.94 22.4763L1169.54 9.60893C1165.53 2.5782 1159.68 -2.75495 1152.44 -6.35541L1140.87 16.9278ZM1146.99 22.565C1148.34 24.8844 1149.26 27.9874 1149.26 32.3388H1175.26C1175.26 24.1949 1173.49 16.4337 1169.48 9.52027L1146.99 22.565ZM1149.26 32.3388C1149.26 36.7169 1148.33 39.7141 1147.04 41.8653L1169.35 55.2199C1173.48 48.3229 1175.26 40.5175 1175.26 32.3388H1149.26ZM1147.06 41.8317C1145.79 43.9332 1143.92 45.7039 1140.92 47.1049L1151.92 70.6621C1159.2 67.262 1165.18 62.1388 1169.33 55.2535L1147.06 41.8317ZM1140.89 47.1177C1137.93 48.5074 1133.74 49.4844 1127.86 49.4844V75.4844C1136.51 75.4844 1144.69 74.0608 1151.95 70.6494L1140.89 47.1177ZM1127.86 49.4844H1102.89V75.4844H1127.86V49.4844ZM1115.89 62.4844V46.419H1089.89V62.4844H1115.89ZM1102.89 59.419H1124.63V33.419H1102.89V59.419ZM1124.63 59.419C1129.53 59.419 1134.52 58.7635 1139.12 56.8581L1129.16 32.8408C1128.71 33.0281 1127.37 33.419 1124.63 33.419V59.419ZM1139.12 56.8581C1143.91 54.8721 1148.14 51.5602 1150.98 46.7319L1128.57 33.5494C1128.71 33.3023 1128.91 33.0765 1129.1 32.914C1129.28 32.7622 1129.35 32.7639 1129.16 32.8408L1139.12 56.8581ZM1150.91 46.8531C1153.68 42.2523 1154.67 37.1784 1154.67 32.3388H1128.67C1128.67 33.716 1128.39 33.8433 1128.64 33.4281L1150.91 46.8531ZM1154.67 32.3388C1154.67 27.4769 1153.68 22.4272 1150.99 17.8282L1128.56 30.9687C1128.39 30.6784 1128.67 30.9222 1128.67 32.3388H1154.67ZM1151.06 17.9486C1148.27 13.0613 1144.07 9.66058 1139.27 7.57849L1128.92 31.4314C1129.13 31.5226 1129.1 31.5392 1128.94 31.407C1128.87 31.3435 1128.78 31.2591 1128.7 31.155C1128.61 31.0507 1128.54 30.9454 1128.49 30.8482L1151.06 17.9486ZM1139.44 7.6554C1134.72 5.52362 1129.56 4.79688 1124.54 4.79688V30.7969C1127.21 30.7969 1128.42 31.2089 1128.75 31.3545L1139.44 7.6554ZM1124.54 4.79688H1111.06V30.7969H1124.54V4.79688ZM1098.06 17.7969V96H1124.06V17.7969H1098.06ZM1111.06 83H1091.07V109H1111.06V83ZM1130.72 59.2055L1154.22 102.231L1177.03 89.7689L1153.54 46.7434L1130.72 59.2055ZM1165.62 83H1143.56V109H1165.62V83ZM1155.02 89.8734L1132.03 46.8478L1109.1 59.101L1132.09 102.127L1155.02 89.8734ZM1120.57 65.9744H1142.13V39.9744H1120.57V65.9744Z" fill="black"/>
</svg>
