<svg width="335" height="116" viewBox="0 0 335 116" fill="none" xmlns="http://www.w3.org/2000/svg">
<g filter="url(#filter0_d_1_1125)">
<rect x="30" y="22" width="275" height="56" rx="18" fill="#393948"/>
</g>
<path d="M132.336 56L132.398 52.6094H131.945L131.492 54.0781C131.273 54.776 130.961 55.224 130.555 55.4219C130.315 55.526 130.039 55.5781 129.727 55.5781H128.117V47.0469H129.445V46.625H124.68V47.0469H125.93V55.5781H124.68V56H132.336ZM135.008 52.6094C135.008 51.151 135.185 50.2188 135.539 49.8125C135.758 49.5729 136.065 49.4531 136.461 49.4531C137.128 49.4531 137.555 49.7917 137.742 50.4688C137.867 50.9062 137.93 51.599 137.93 52.5469C137.93 54.0677 137.732 55.026 137.336 55.4219C137.107 55.6406 136.81 55.75 136.445 55.75C135.799 55.75 135.383 55.4167 135.195 54.75C135.07 54.3021 135.008 53.5885 135.008 52.6094ZM136.539 49.0469C135.258 49.0469 134.273 49.4844 133.586 50.3594C133.107 50.9844 132.867 51.7135 132.867 52.5469C132.867 53.724 133.273 54.6562 134.086 55.3438C134.732 55.8854 135.503 56.1562 136.398 56.1562C137.628 56.1562 138.591 55.7135 139.289 54.8281C139.81 54.1615 140.07 53.3906 140.07 52.5156C140.07 51.349 139.659 50.4375 138.836 49.7812C138.201 49.2917 137.435 49.0469 136.539 49.0469ZM143.195 51.6875C143.195 50.6562 143.31 50.0052 143.539 49.7344C143.706 49.5469 143.951 49.4531 144.273 49.4531C144.794 49.4531 145.122 49.6927 145.258 50.1719C145.331 50.4635 145.367 50.9531 145.367 51.6406C145.367 52.6927 145.242 53.3594 144.992 53.6406C144.815 53.8177 144.57 53.9062 144.258 53.9062C143.747 53.9062 143.43 53.6667 143.305 53.1875C143.232 52.9062 143.195 52.4062 143.195 51.6875ZM144.336 49.0469C143.128 49.0469 142.242 49.4323 141.68 50.2031C141.367 50.6302 141.211 51.1094 141.211 51.6406C141.211 52.3906 141.576 53.0469 142.305 53.6094C142.44 53.7135 142.581 53.8073 142.727 53.8906H142.711C142.096 53.8802 141.669 54.151 141.43 54.7031C141.346 54.9115 141.305 55.1198 141.305 55.3281C141.315 55.8281 141.508 56.2344 141.883 56.5469C141.612 56.8698 141.477 57.1875 141.477 57.5C141.477 58.0625 141.846 58.4844 142.586 58.7656C143.086 58.9531 143.69 59.0469 144.398 59.0469C146.107 59.0469 147.211 58.6458 147.711 57.8438C147.867 57.5938 147.945 57.3333 147.945 57.0625C147.945 56.0104 147.372 55.4115 146.227 55.2656C146.091 55.2448 145.951 55.2344 145.805 55.2344L142.57 55.1719C142.299 55.1615 142.138 55.0417 142.086 54.8125C142.076 54.7812 142.07 54.75 142.07 54.7188C142.07 54.4792 142.201 54.3438 142.461 54.3125C142.503 54.3021 142.544 54.2969 142.586 54.2969L144.258 54.3125C145.404 54.3125 146.268 53.9219 146.852 53.1406C147.185 52.6823 147.352 52.1719 147.352 51.6094C147.341 50.849 147.055 50.224 146.492 49.7344C146.68 49.4427 146.898 49.2917 147.148 49.2812C147.284 49.2812 147.451 49.3698 147.648 49.5469C147.805 49.6719 147.951 49.7344 148.086 49.7344C148.398 49.7344 148.591 49.5885 148.664 49.2969C148.674 49.2448 148.68 49.1927 148.68 49.1406C148.68 48.7656 148.497 48.5 148.133 48.3438C147.966 48.2708 147.784 48.2344 147.586 48.2344C147.044 48.2344 146.622 48.5469 146.32 49.1719C146.268 49.2865 146.221 49.401 146.18 49.5156C145.68 49.2031 145.065 49.0469 144.336 49.0469ZM144.398 58.625C143.128 58.625 142.362 58.3438 142.102 57.7812C142.049 57.6667 142.023 57.5521 142.023 57.4375C142.023 57.2188 142.102 57 142.258 56.7812C142.466 56.8646 142.685 56.9062 142.914 56.9062L146.07 56.9375C146.674 56.9375 147.029 57.0312 147.133 57.2188C147.174 57.2917 147.195 57.3802 147.195 57.4844C147.195 57.974 146.711 58.3125 145.742 58.5C145.336 58.5833 144.888 58.625 144.398 58.625ZM152.305 55.5938H151.727V49.2812H148.836V49.6875H149.742V54.7812C149.742 55.2396 149.56 55.5 149.195 55.5625C149.091 55.5833 148.971 55.5938 148.836 55.5938V56H152.68C152.68 55.7604 152.612 55.6302 152.477 55.6094C152.424 55.599 152.367 55.5938 152.305 55.5938ZM151.867 47.2344C151.867 46.776 151.664 46.4375 151.258 46.2188C151.081 46.1146 150.893 46.0625 150.695 46.0625C150.247 46.0625 149.909 46.2656 149.68 46.6719C149.586 46.849 149.539 47.0365 149.539 47.2344C149.539 47.6927 149.742 48.026 150.148 48.2344C150.326 48.3281 150.508 48.375 150.695 48.375C151.154 48.375 151.492 48.1823 151.711 47.7969C151.815 47.6198 151.867 47.4323 151.867 47.2344ZM156.586 55.5938H156.195L156.211 51.5938C156.284 50.7708 156.586 50.2292 157.117 49.9688C157.263 49.8958 157.414 49.8594 157.57 49.8594C158.164 49.8594 158.513 50.2083 158.617 50.9062C158.638 51.0417 158.648 51.1823 158.648 51.3281V54.7812C158.648 55.2188 158.534 55.474 158.305 55.5469C158.201 55.5781 158.076 55.5938 157.93 55.5938V56H161.539C161.539 55.7604 161.471 55.6302 161.336 55.6094C161.273 55.599 161.211 55.5938 161.148 55.5938H160.633V51.5938C160.633 50.3021 160.174 49.4948 159.258 49.1719C159.008 49.0885 158.747 49.0469 158.477 49.0469C157.716 49.0469 157.07 49.349 156.539 49.9531C156.383 50.1302 156.258 50.3125 156.164 50.5L156.086 49.2812H153.305V49.6875H154.211V54.7812C154.211 55.2604 153.987 55.526 153.539 55.5781C153.466 55.5885 153.388 55.5938 153.305 55.5938V56H156.961C156.961 55.7604 156.893 55.6302 156.758 55.6094C156.706 55.599 156.648 55.5938 156.586 55.5938ZM168.508 49.6875V49.2812H164.898V49.6875H165.555L167.367 54.9375C167.586 55.5625 167.805 55.9219 168.023 56.0156C168.128 56.0573 168.258 56.0781 168.414 56.0781H168.93L170.383 51.5625L171.539 54.9375C171.747 55.5312 171.919 55.875 172.055 55.9688C172.169 56.0417 172.331 56.0781 172.539 56.0781H173.055L175.008 50.1406C175.195 49.8594 175.393 49.7083 175.602 49.6875C175.789 49.6875 175.888 49.6042 175.898 49.4375C175.909 49.3854 175.914 49.3333 175.914 49.2812H173.695V49.6875H174.664L173.211 54.25L171.68 49.6875H172.617V49.2812H169.586L170.117 50.8438L169.086 54.2344L167.57 49.6875H168.508ZM179.773 55.5938H179.195V49.2812H176.305V49.6875H177.211V54.7812C177.211 55.2396 177.029 55.5 176.664 55.5625C176.56 55.5833 176.44 55.5938 176.305 55.5938V56H180.148C180.148 55.7604 180.081 55.6302 179.945 55.6094C179.893 55.599 179.836 55.5938 179.773 55.5938ZM179.336 47.2344C179.336 46.776 179.133 46.4375 178.727 46.2188C178.549 46.1146 178.362 46.0625 178.164 46.0625C177.716 46.0625 177.378 46.2656 177.148 46.6719C177.055 46.849 177.008 47.0365 177.008 47.2344C177.008 47.6927 177.211 48.026 177.617 48.2344C177.794 48.3281 177.977 48.375 178.164 48.375C178.622 48.375 178.961 48.1823 179.18 47.7969C179.284 47.6198 179.336 47.4323 179.336 47.2344ZM180.695 49.7656H181.773V53.6719C181.773 55.1823 182.398 56.0104 183.648 56.1562C183.773 56.1667 183.898 56.1719 184.023 56.1719C184.826 56.1719 185.378 55.9115 185.68 55.3906C185.826 55.1302 185.94 54.7865 186.023 54.3594L185.602 54.2969C185.393 55.1406 185.086 55.6042 184.68 55.6875C184.617 55.6979 184.555 55.7031 184.492 55.7031C184.107 55.7031 183.872 55.4323 183.789 54.8906C183.768 54.7656 183.758 54.6354 183.758 54.5V49.7656H185.82V49.3594H183.758V47.5469L181.773 47.875V49.3594H180.695V49.7656ZM189.711 55.5938H189.32V51.8438C189.32 50.9271 189.602 50.3177 190.164 50.0156C190.341 49.9219 190.513 49.875 190.68 49.875C191.315 49.875 191.669 50.2656 191.742 51.0469C191.753 51.1302 191.758 51.224 191.758 51.3281V54.7812C191.758 55.1979 191.695 55.4427 191.57 55.5156C191.466 55.5677 191.326 55.5938 191.148 55.5938V56H194.648C194.648 55.7604 194.581 55.6302 194.445 55.6094C194.383 55.599 194.32 55.5938 194.258 55.5938H193.742V51.5938C193.742 50.2917 193.279 49.4844 192.352 49.1719C192.122 49.0885 191.872 49.0469 191.602 49.0469C190.758 49.0469 190.086 49.3698 189.586 50.0156C189.482 50.1615 189.393 50.3073 189.32 50.4531V45.8438H186.414V46.25H187.336V54.7812C187.336 55.2708 187.102 55.5365 186.633 55.5781C186.56 55.5885 186.487 55.5938 186.414 55.5938V56H190.086C190.086 55.7604 190.018 55.6302 189.883 55.6094C189.831 55.599 189.773 55.5938 189.711 55.5938ZM203.523 56V55.5781H201.68V51.4062H204.68V50.9375H201.68V47.0469H203.445C204.383 47.0469 205.003 47.5365 205.305 48.5156C205.315 48.526 205.32 48.5365 205.32 48.5469L205.664 49.7031H206.117L206.055 46.625H198.242V47.0469H199.492V55.5781H198.242V56H203.523ZM212.258 56.1562C213.018 56.1562 213.492 55.8802 213.68 55.3281C213.742 55.1198 213.789 54.8542 213.82 54.5312L213.414 54.5156C213.352 55.2344 213.169 55.599 212.867 55.6094C212.638 55.5885 212.523 55.3281 212.523 54.8281V51.5625C212.523 50.2604 211.919 49.4583 210.711 49.1562C210.398 49.0833 210.06 49.0469 209.695 49.0469C208.279 49.0469 207.388 49.3542 207.023 49.9688C206.93 50.125 206.883 50.2917 206.883 50.4688C206.883 50.875 207.076 51.1302 207.461 51.2344C207.555 51.2656 207.654 51.2812 207.758 51.2812C208.206 51.2812 208.508 51.0625 208.664 50.625C208.685 50.5625 208.716 50.4583 208.758 50.3125C208.872 49.8958 209.018 49.6354 209.195 49.5312C209.31 49.4792 209.44 49.4531 209.586 49.4531C210.076 49.4531 210.372 49.75 210.477 50.3438C210.518 50.5625 210.539 50.8229 210.539 51.125V52.1406C207.862 52.1927 206.518 52.901 206.508 54.2656C206.508 55.1927 206.914 55.7865 207.727 56.0469C207.966 56.1198 208.232 56.1562 208.523 56.1562C209.409 56.1562 210.06 55.8229 210.477 55.1562C210.56 55.0208 210.628 54.8802 210.68 54.7344C210.898 55.6302 211.424 56.1042 212.258 56.1562ZM209.336 55.4844C208.815 55.4635 208.549 55 208.539 54.0938C208.539 53.4062 208.82 52.9583 209.383 52.75C209.685 52.6562 210.07 52.599 210.539 52.5781V54.0938C210.341 54.8229 210.023 55.2708 209.586 55.4375C209.492 55.4688 209.409 55.4844 209.336 55.4844ZM214.367 52.625C214.367 54.1458 214.945 55.1927 216.102 55.7656C216.643 56.026 217.263 56.1562 217.961 56.1562C219.044 56.1562 219.878 55.8281 220.461 55.1719C220.659 54.9427 220.81 54.6927 220.914 54.4219L220.508 54.3125C220.216 54.9375 219.721 55.3594 219.023 55.5781C218.753 55.6615 218.482 55.7031 218.211 55.7031C217.492 55.7031 217.013 55.3802 216.773 54.7344C216.596 54.2552 216.508 53.5781 216.508 52.7031C216.508 50.9531 216.784 49.9115 217.336 49.5781C217.503 49.4844 217.701 49.4375 217.93 49.4375C218.388 49.4375 218.669 49.651 218.773 50.0781C218.794 50.1615 218.82 50.3021 218.852 50.5C218.914 50.9792 219.039 51.2865 219.227 51.4219C219.372 51.526 219.57 51.5781 219.82 51.5781C220.352 51.5781 220.68 51.3802 220.805 50.9844C220.826 50.901 220.836 50.8177 220.836 50.7344C220.836 50.276 220.56 49.875 220.008 49.5312C219.466 49.2083 218.789 49.0469 217.977 49.0469C216.872 49.0469 215.977 49.4062 215.289 50.125C214.674 50.7708 214.367 51.6042 214.367 52.625ZM224.961 49.4531C225.628 49.474 225.966 50.0417 225.977 51.1562C225.977 51.6458 225.831 51.9479 225.539 52.0625C225.331 52.1354 225.018 52.1615 224.602 52.1406L223.602 52.0938C223.674 50.3646 224.128 49.4844 224.961 49.4531ZM227.883 54.3906L227.508 54.2656C227.216 54.901 226.758 55.3333 226.133 55.5625C225.883 55.6562 225.628 55.7031 225.367 55.7031C224.534 55.7031 223.997 55.1719 223.758 54.1094C223.664 53.6719 223.612 53.151 223.602 52.5469L225.039 52.5938C226.716 52.6458 227.69 52.3802 227.961 51.7969C228.023 51.651 228.055 51.4896 228.055 51.3125C228.055 50.4271 227.602 49.7812 226.695 49.375C226.185 49.1562 225.607 49.0469 224.961 49.0469C223.784 49.0469 222.867 49.4479 222.211 50.25C221.711 50.875 221.461 51.651 221.461 52.5781C221.461 54.0885 222.029 55.1406 223.164 55.7344C223.706 56.0156 224.32 56.1562 225.008 56.1562C226.227 56.1562 227.102 55.7292 227.633 54.875C227.737 54.7188 227.82 54.5573 227.883 54.3906ZM233.414 56.1562C234.435 56.1562 235.253 55.7708 235.867 55C236.409 54.3229 236.68 53.4635 236.68 52.4219C236.68 51.0677 236.258 50.0938 235.414 49.5C234.977 49.1979 234.492 49.0469 233.961 49.0469C232.888 49.0573 232.081 49.5885 231.539 50.6406V45.8438H228.664V46.2656H229.555V54.7656C229.555 55.2135 229.383 55.474 229.039 55.5469C228.924 55.5677 228.799 55.5781 228.664 55.5781V56H231.055L231.18 54.9062C231.732 55.7292 232.477 56.1458 233.414 56.1562ZM233.195 49.7969C234.091 49.8177 234.539 50.7656 234.539 52.6406C234.529 54.6927 234.044 55.724 233.086 55.7344C232.409 55.7344 231.951 55.2865 231.711 54.3906C231.596 53.974 231.539 53.4896 231.539 52.9375C231.539 51.5104 231.841 50.5521 232.445 50.0625C232.674 49.8854 232.924 49.7969 233.195 49.7969ZM239.727 52.6094C239.727 51.151 239.904 50.2188 240.258 49.8125C240.477 49.5729 240.784 49.4531 241.18 49.4531C241.846 49.4531 242.273 49.7917 242.461 50.4688C242.586 50.9062 242.648 51.599 242.648 52.5469C242.648 54.0677 242.451 55.026 242.055 55.4219C241.826 55.6406 241.529 55.75 241.164 55.75C240.518 55.75 240.102 55.4167 239.914 54.75C239.789 54.3021 239.727 53.5885 239.727 52.6094ZM241.258 49.0469C239.977 49.0469 238.992 49.4844 238.305 50.3594C237.826 50.9844 237.586 51.7135 237.586 52.5469C237.586 53.724 237.992 54.6562 238.805 55.3438C239.451 55.8854 240.221 56.1562 241.117 56.1562C242.346 56.1562 243.31 55.7135 244.008 54.8281C244.529 54.1615 244.789 53.3906 244.789 52.5156C244.789 51.349 244.378 50.4375 243.555 49.7812C242.919 49.2917 242.154 49.0469 241.258 49.0469ZM247.867 52.6094C247.867 51.151 248.044 50.2188 248.398 49.8125C248.617 49.5729 248.924 49.4531 249.32 49.4531C249.987 49.4531 250.414 49.7917 250.602 50.4688C250.727 50.9062 250.789 51.599 250.789 52.5469C250.789 54.0677 250.591 55.026 250.195 55.4219C249.966 55.6406 249.669 55.75 249.305 55.75C248.659 55.75 248.242 55.4167 248.055 54.75C247.93 54.3021 247.867 53.5885 247.867 52.6094ZM249.398 49.0469C248.117 49.0469 247.133 49.4844 246.445 50.3594C245.966 50.9844 245.727 51.7135 245.727 52.5469C245.727 53.724 246.133 54.6562 246.945 55.3438C247.591 55.8854 248.362 56.1562 249.258 56.1562C250.487 56.1562 251.451 55.7135 252.148 54.8281C252.669 54.1615 252.93 53.3906 252.93 52.5156C252.93 51.349 252.518 50.4375 251.695 49.7812C251.06 49.2917 250.294 49.0469 249.398 49.0469ZM257.617 55.5938H256.805V53.1875L257.289 52.7188L259.195 56.0156L261.789 56C261.789 55.7708 261.727 55.6406 261.602 55.6094C261.549 55.599 261.487 55.5938 261.414 55.5938H261.18L258.664 51.3906L259.82 50.2812C260.185 49.9375 260.466 49.7448 260.664 49.7031C260.747 49.6927 260.831 49.6875 260.914 49.6875C261.143 49.6875 261.273 49.6042 261.305 49.4375C261.315 49.3854 261.32 49.3333 261.32 49.2812H258.68V49.6875H259.82L256.805 52.5469V45.8438H253.633V46.25H254.82V54.7812C254.799 55.3229 254.404 55.5938 253.633 55.5938V56H257.992C257.992 55.7604 257.924 55.6302 257.789 55.6094C257.737 55.599 257.68 55.5938 257.617 55.5938Z" fill="white"/>
<rect x="66" y="35" width="30.7551" height="30.7551" rx="15.3776" fill="#1977F3"/>
<path fill-rule="evenodd" clip-rule="evenodd" d="M84.0966 65.5151C83.2141 65.6726 82.3055 65.7547 81.3777 65.7547C80.5553 65.7547 79.7481 65.6902 78.9607 65.5659V55.2758H74.7875V50.5406H78.9607V46.9315C78.9607 42.8269 81.4129 40.5589 85.1683 40.5589C86.4007 40.5761 87.6303 40.6831 88.847 40.879V44.9106H86.7735C84.7321 44.9106 84.0966 46.1732 84.0966 47.47V50.5413H88.6546L87.926 55.2758H84.0966V65.5151Z" fill="white"/>
<defs>
<filter id="filter0_d_1_1125" x="0" y="0" width="335" height="116" filterUnits="userSpaceOnUse" color-interpolation-filters="sRGB">
<feFlood flood-opacity="0" result="BackgroundImageFix"/>
<feColorMatrix in="SourceAlpha" type="matrix" values="0 0 0 0 0 0 0 0 0 0 0 0 0 0 0 0 0 0 127 0" result="hardAlpha"/>
<feOffset dy="8"/>
<feGaussianBlur stdDeviation="15"/>
<feColorMatrix type="matrix" values="0 0 0 0 0.311869 0 0 0 0 0.334042 0 0 0 0 0.533594 0 0 0 0.06 0"/>
<feBlend mode="normal" in2="BackgroundImageFix" result="effect1_dropShadow_1_1125"/>
<feBlend mode="normal" in="SourceGraphic" in2="effect1_dropShadow_1_1125" result="shape"/>
</filter>
</defs>
</svg>
