<svg width="374" height="56" viewBox="0 0 374 56" fill="none" xmlns="http://www.w3.org/2000/svg">
<rect width="375" height="72" rx="24" fill="#24242F"/>
<path d="M301.5 37.25C301.5 34.75 306.5 33.375 309 33.375C311.5 33.375 316.5 34.75 316.5 37.25V38.5H301.5V37.25ZM312.75 27.25C312.75 28.2446 312.355 29.1984 311.652 29.9017C310.948 30.6049 309.995 31 309 31C308.005 31 307.052 30.6049 306.348 29.9017C305.645 29.1984 305.25 28.2446 305.25 27.25C305.25 26.2554 305.645 25.3016 306.348 24.5983C307.052 23.8951 308.005 23.5 309 23.5C309.995 23.5 310.948 23.8951 311.652 24.5983C312.355 25.3016 312.75 26.2554 312.75 27.25ZM297.75 22.25V39.75C297.75 40.413 298.013 41.0489 298.482 41.5178C298.951 41.9866 299.587 42.25 300.25 42.25H317.75C318.413 42.25 319.049 41.9866 319.518 41.5178C319.987 41.0489 320.25 40.413 320.25 39.75V22.25C320.25 21.587 319.987 20.9511 319.518 20.4822C319.049 20.0134 318.413 19.75 317.75 19.75H300.25C298.862 19.75 297.75 20.875 297.75 22.25Z" fill="white"/>
<path d="M71.25 43.5C70.9185 43.5 70.6005 43.3683 70.3661 43.1339C70.1317 42.8995 70 42.5815 70 42.25V38.5H65C64.337 38.5 63.7011 38.2366 63.2322 37.7678C62.7634 37.2989 62.5 36.663 62.5 36V21C62.5 19.6125 63.625 18.5 65 18.5H85C85.663 18.5 86.2989 18.7634 86.7678 19.2322C87.2366 19.7011 87.5 20.337 87.5 21V36C87.5 36.663 87.2366 37.2989 86.7678 37.7678C86.2989 38.2366 85.663 38.5 85 38.5H77.375L72.75 43.1375C72.5 43.375 72.1875 43.5 71.875 43.5H71.25ZM81.25 29.75V27.25H78.75V29.75H81.25ZM76.25 29.75V27.25H73.75V29.75H76.25ZM71.25 29.75V27.25H68.75V29.75H71.25Z" fill="#5669FF"/>
<path d="M197.25 18.5H174.75C173.375 18.5 172.25 19.625 172.25 21V41C172.25 42.375 173.375 43.5 174.75 43.5H197.25C198.625 43.5 199.75 42.375 199.75 41V21C199.75 19.625 198.625 18.5 197.25 18.5ZM197.25 24.75H174.75V21H197.25V24.75Z" fill="white"/>
</svg>
