<svg width="105" height="12" viewBox="0 0 105 12" fill="none" xmlns="http://www.w3.org/2000/svg">
<path d="M5.45508 9V8.63086H3.8418V4.98047H6.4668V4.57031H3.8418V1.16602H5.38672C6.20703 1.16602 6.74935 1.5944 7.01367 2.45117C7.02279 2.46029 7.02734 2.4694 7.02734 2.47852L7.32812 3.49023H7.72461L7.66992 0.796875H0.833984V1.16602H1.92773V8.63086H0.833984V9H5.45508ZM10.0762 6.0332C10.0762 4.75716 10.2311 3.94141 10.541 3.58594C10.7324 3.3763 11.0013 3.27148 11.3477 3.27148C11.931 3.27148 12.3047 3.56771 12.4688 4.16016C12.5781 4.54297 12.6328 5.14909 12.6328 5.97852C12.6328 7.30924 12.4596 8.14779 12.1133 8.49414C11.9128 8.68555 11.653 8.78125 11.334 8.78125C10.7689 8.78125 10.4043 8.48958 10.2402 7.90625C10.1309 7.51432 10.0762 6.88997 10.0762 6.0332ZM11.416 2.91602C10.2949 2.91602 9.43359 3.29883 8.83203 4.06445C8.41276 4.61133 8.20312 5.24935 8.20312 5.97852C8.20312 7.00846 8.55859 7.82422 9.26953 8.42578C9.83464 8.89974 10.5091 9.13672 11.293 9.13672C12.3685 9.13672 13.2116 8.74935 13.8223 7.97461C14.278 7.39128 14.5059 6.7168 14.5059 5.95117C14.5059 4.93034 14.1458 4.13281 13.4258 3.55859C12.8698 3.13021 12.1999 2.91602 11.416 2.91602ZM18.7305 8.64453H17.7188V5.69141C17.7826 4.73438 18.015 4.15104 18.416 3.94141C18.4798 3.91406 18.5391 3.90039 18.5938 3.90039C18.694 3.90039 18.8034 4.00521 18.9219 4.21484C19.0859 4.50651 19.2637 4.6888 19.4551 4.76172C19.5462 4.78906 19.6465 4.80273 19.7559 4.80273C20.1204 4.80273 20.3802 4.62956 20.5352 4.2832C20.5898 4.16471 20.6172 4.04167 20.6172 3.91406C20.6172 3.45833 20.3939 3.17122 19.9473 3.05273C19.8379 3.02539 19.724 3.01172 19.6055 3.01172C19.0404 3.01172 18.5436 3.23503 18.1152 3.68164C17.9238 3.90039 17.778 4.13737 17.6777 4.39258L17.582 3.12109H15.1895V3.47656H15.9824V7.93359C15.9824 8.33464 15.8229 8.5625 15.5039 8.61719C15.4128 8.63542 15.3079 8.64453 15.1895 8.64453V9H19.0586C19.0586 8.79036 18.9993 8.67643 18.8809 8.6582C18.8353 8.64909 18.7852 8.64453 18.7305 8.64453ZM23.0098 5.22656C23.0098 4.32422 23.11 3.75456 23.3105 3.51758C23.4564 3.35352 23.6706 3.27148 23.9531 3.27148C24.4089 3.27148 24.696 3.48112 24.8145 3.90039C24.8783 4.1556 24.9102 4.58398 24.9102 5.18555C24.9102 6.10612 24.8008 6.68945 24.582 6.93555C24.4271 7.09049 24.2129 7.16797 23.9395 7.16797C23.4928 7.16797 23.2148 6.95833 23.1055 6.53906C23.0417 6.29297 23.0098 5.85547 23.0098 5.22656ZM24.0078 2.91602C22.9505 2.91602 22.1758 3.25326 21.6836 3.92773C21.4102 4.30143 21.2734 4.7207 21.2734 5.18555C21.2734 5.8418 21.5924 6.41602 22.2305 6.9082C22.349 6.99935 22.472 7.08138 22.5996 7.1543H22.5859C22.0482 7.14518 21.6745 7.38216 21.4648 7.86523C21.3919 8.04753 21.3555 8.22982 21.3555 8.41211C21.3646 8.84961 21.5332 9.20508 21.8613 9.47852C21.6243 9.76107 21.5059 10.0391 21.5059 10.3125C21.5059 10.8047 21.8294 11.1738 22.4766 11.4199C22.9141 11.584 23.4427 11.666 24.0625 11.666C25.5573 11.666 26.5234 11.3151 26.9609 10.6133C27.0977 10.3945 27.166 10.1667 27.166 9.92969C27.166 9.00911 26.6647 8.48503 25.6621 8.35742C25.5436 8.33919 25.4206 8.33008 25.293 8.33008L22.4629 8.27539C22.2259 8.26628 22.0846 8.16146 22.0391 7.96094C22.0299 7.93359 22.0254 7.90625 22.0254 7.87891C22.0254 7.66927 22.1393 7.55078 22.3672 7.52344C22.4036 7.51432 22.4401 7.50977 22.4766 7.50977L23.9395 7.52344C24.9421 7.52344 25.6986 7.18164 26.209 6.49805C26.5007 6.09701 26.6465 5.65039 26.6465 5.1582C26.6374 4.49284 26.3867 3.94596 25.8945 3.51758C26.0586 3.26237 26.25 3.13021 26.4688 3.12109C26.5872 3.12109 26.7331 3.19857 26.9062 3.35352C27.043 3.46289 27.1706 3.51758 27.2891 3.51758C27.5625 3.51758 27.7311 3.38997 27.7949 3.13477C27.804 3.08919 27.8086 3.04362 27.8086 2.99805C27.8086 2.66992 27.6491 2.4375 27.3301 2.30078C27.1842 2.23698 27.0247 2.20508 26.8516 2.20508C26.3776 2.20508 26.0085 2.47852 25.7441 3.02539C25.6986 3.12565 25.6576 3.22591 25.6211 3.32617C25.1836 3.05273 24.6458 2.91602 24.0078 2.91602ZM24.0625 11.2969C22.9505 11.2969 22.2806 11.0508 22.0527 10.5586C22.0072 10.4583 21.9844 10.3581 21.9844 10.2578C21.9844 10.0664 22.0527 9.875 22.1895 9.68359C22.3717 9.75651 22.5632 9.79297 22.7637 9.79297L25.5254 9.82031C26.054 9.82031 26.3639 9.90234 26.4551 10.0664C26.4915 10.1302 26.5098 10.2077 26.5098 10.2988C26.5098 10.7272 26.0859 11.0234 25.2383 11.1875C24.8828 11.2604 24.4909 11.2969 24.0625 11.2969ZM29.8867 6.0332C29.8867 4.75716 30.0417 3.94141 30.3516 3.58594C30.543 3.3763 30.8118 3.27148 31.1582 3.27148C31.7415 3.27148 32.1152 3.56771 32.2793 4.16016C32.3887 4.54297 32.4434 5.14909 32.4434 5.97852C32.4434 7.30924 32.2702 8.14779 31.9238 8.49414C31.7233 8.68555 31.4635 8.78125 31.1445 8.78125C30.5794 8.78125 30.2148 8.48958 30.0508 7.90625C29.9414 7.51432 29.8867 6.88997 29.8867 6.0332ZM31.2266 2.91602C30.1055 2.91602 29.2441 3.29883 28.6426 4.06445C28.2233 4.61133 28.0137 5.24935 28.0137 5.97852C28.0137 7.00846 28.3691 7.82422 29.0801 8.42578C29.6452 8.89974 30.3197 9.13672 31.1035 9.13672C32.179 9.13672 33.0221 8.74935 33.6328 7.97461C34.0885 7.39128 34.3164 6.7168 34.3164 5.95117C34.3164 4.93034 33.9564 4.13281 33.2363 3.55859C32.6803 3.13021 32.0104 2.91602 31.2266 2.91602ZM34.9316 3.54492H35.875V6.96289C35.875 8.28451 36.4219 9.00911 37.5156 9.13672C37.625 9.14583 37.7344 9.15039 37.8438 9.15039C38.5456 9.15039 39.0286 8.92253 39.293 8.4668C39.4206 8.23893 39.5208 7.93815 39.5938 7.56445L39.2246 7.50977C39.0423 8.24805 38.7734 8.65365 38.418 8.72656C38.3633 8.73568 38.3086 8.74023 38.2539 8.74023C37.9167 8.74023 37.7116 8.50326 37.6387 8.0293C37.6204 7.91992 37.6113 7.80599 37.6113 7.6875V3.54492H39.416V3.18945H37.6113V1.60352L35.875 1.89062V3.18945H34.9316V3.54492ZM46.3887 1.16602C47.3366 1.18424 47.8151 1.82227 47.8242 3.08008C47.806 4.33789 47.3092 4.97135 46.334 4.98047H45.6094V1.16602H46.3887ZM46.9766 9C46.9219 8.77214 46.7988 8.64909 46.6074 8.63086H45.6094V5.39062H46.7305C48.3073 5.39062 49.2962 4.89388 49.6973 3.90039C49.8158 3.61784 49.875 3.30339 49.875 2.95703C49.875 2.10026 49.4922 1.48503 48.7266 1.11133C48.2891 0.901693 47.7695 0.796875 47.168 0.796875H42.6016V1.16602H43.6953V8.63086H42.6016V9H46.9766ZM55.3164 9.13672C55.9818 9.13672 56.3965 8.89518 56.5605 8.41211C56.6152 8.22982 56.6562 7.9974 56.6836 7.71484L56.3281 7.70117C56.2734 8.33008 56.1139 8.64909 55.8496 8.6582C55.6491 8.63997 55.5488 8.41211 55.5488 7.97461V5.11719C55.5488 3.97786 55.0202 3.27604 53.9629 3.01172C53.6895 2.94792 53.3932 2.91602 53.0742 2.91602C51.8346 2.91602 51.0553 3.1849 50.7363 3.72266C50.6543 3.85938 50.6133 4.00521 50.6133 4.16016C50.6133 4.51562 50.7819 4.73893 51.1191 4.83008C51.2012 4.85742 51.2878 4.87109 51.3789 4.87109C51.7708 4.87109 52.0352 4.67969 52.1719 4.29688C52.1901 4.24219 52.2174 4.15104 52.2539 4.02344C52.3542 3.65885 52.4818 3.43099 52.6367 3.33984C52.737 3.29427 52.8509 3.27148 52.9785 3.27148C53.4069 3.27148 53.6667 3.53125 53.7578 4.05078C53.7943 4.24219 53.8125 4.47005 53.8125 4.73438V5.62305C51.4701 5.66862 50.2943 6.28841 50.2852 7.48242C50.2852 8.29362 50.6406 8.81315 51.3516 9.04102C51.5612 9.10482 51.7936 9.13672 52.0488 9.13672C52.8236 9.13672 53.3932 8.84505 53.7578 8.26172C53.8307 8.14323 53.89 8.02018 53.9355 7.89258C54.127 8.67643 54.5872 9.09115 55.3164 9.13672ZM52.7598 8.54883C52.304 8.5306 52.0716 8.125 52.0625 7.33203C52.0625 6.73047 52.3086 6.33854 52.8008 6.15625C53.0651 6.07422 53.4023 6.02409 53.8125 6.00586V7.33203C53.6393 7.97005 53.3613 8.36198 52.9785 8.50781C52.8965 8.53516 52.8236 8.54883 52.7598 8.54883ZM59.4316 8.75391C60.0423 8.75391 60.3932 8.53516 60.4844 8.09766C60.4935 8.03385 60.498 7.97461 60.498 7.91992C60.498 7.45508 60.2064 7.06771 59.623 6.75781C59.4954 6.6849 59.2904 6.58919 59.0078 6.4707C58.3242 6.16992 57.873 5.89193 57.6543 5.63672C57.4173 5.36328 57.2988 5.03971 57.2988 4.66602C57.2988 3.89128 57.7227 3.36719 58.5703 3.09375C58.9258 2.97526 59.3223 2.91602 59.7598 2.91602C60.4707 2.91602 61.0267 3.04362 61.4277 3.29883C61.4277 3.02539 61.5098 2.875 61.6738 2.84766C61.7103 2.83854 61.7467 2.83398 61.7832 2.83398V4.54297H61.3457C61.3092 3.71354 60.8581 3.29427 59.9922 3.28516C59.4089 3.28516 59.0488 3.47656 58.9121 3.85938C58.8848 3.95052 58.8711 4.04167 58.8711 4.13281C58.8711 4.52474 59.1445 4.85742 59.6914 5.13086C59.8008 5.19466 59.9831 5.28125 60.2383 5.39062C60.9492 5.70964 61.4232 6.0013 61.6602 6.26562C61.9336 6.57552 62.0703 6.94466 62.0703 7.37305C62.0703 8.16602 61.6602 8.69922 60.8398 8.97266C60.5026 9.08203 60.1243 9.13672 59.7051 9.13672C58.903 9.13672 58.2285 8.99544 57.6816 8.71289C57.6816 8.94987 57.6224 9.08659 57.5039 9.12305C57.4492 9.13216 57.3854 9.13672 57.3125 9.13672V7.05859H57.7773C57.7956 8.17969 58.347 8.74479 59.4316 8.75391ZM65.1602 8.75391C65.7708 8.75391 66.1217 8.53516 66.2129 8.09766C66.222 8.03385 66.2266 7.97461 66.2266 7.91992C66.2266 7.45508 65.9349 7.06771 65.3516 6.75781C65.224 6.6849 65.0189 6.58919 64.7363 6.4707C64.0527 6.16992 63.6016 5.89193 63.3828 5.63672C63.1458 5.36328 63.0273 5.03971 63.0273 4.66602C63.0273 3.89128 63.4512 3.36719 64.2988 3.09375C64.6543 2.97526 65.0508 2.91602 65.4883 2.91602C66.1992 2.91602 66.7552 3.04362 67.1562 3.29883C67.1562 3.02539 67.2383 2.875 67.4023 2.84766C67.4388 2.83854 67.4753 2.83398 67.5117 2.83398V4.54297H67.0742C67.0378 3.71354 66.5866 3.29427 65.7207 3.28516C65.1374 3.28516 64.7773 3.47656 64.6406 3.85938C64.6133 3.95052 64.5996 4.04167 64.5996 4.13281C64.5996 4.52474 64.873 4.85742 65.4199 5.13086C65.5293 5.19466 65.7116 5.28125 65.9668 5.39062C66.6777 5.70964 67.1517 6.0013 67.3887 6.26562C67.6621 6.57552 67.7988 6.94466 67.7988 7.37305C67.7988 8.16602 67.3887 8.69922 66.5684 8.97266C66.2311 9.08203 65.8529 9.13672 65.4336 9.13672C64.6315 9.13672 63.957 8.99544 63.4102 8.71289C63.4102 8.94987 63.3509 9.08659 63.2324 9.12305C63.1777 9.13216 63.1139 9.13672 63.041 9.13672V7.05859H63.5059C63.5241 8.17969 64.0755 8.74479 65.1602 8.75391ZM71.4355 3.47656V3.12109H68.2773V3.47656H68.8516L70.4375 8.07031C70.6289 8.61719 70.8203 8.93164 71.0117 9.01367C71.1029 9.05013 71.2168 9.06836 71.3535 9.06836H71.8047L73.0762 5.11719L74.0879 8.07031C74.2702 8.58984 74.4206 8.89062 74.5391 8.97266C74.6393 9.03646 74.7806 9.06836 74.9629 9.06836H75.4141L77.123 3.87305C77.2871 3.62695 77.4603 3.49479 77.6426 3.47656C77.8066 3.47656 77.8932 3.40365 77.9023 3.25781C77.9115 3.21224 77.916 3.16667 77.916 3.12109H75.9746V3.47656H76.8223L75.5508 7.46875L74.2109 3.47656H75.0312V3.12109H72.3789L72.8438 4.48828L71.9414 7.45508L70.6152 3.47656H71.4355ZM80.1992 6.0332C80.1992 4.75716 80.3542 3.94141 80.6641 3.58594C80.8555 3.3763 81.1243 3.27148 81.4707 3.27148C82.054 3.27148 82.4277 3.56771 82.5918 4.16016C82.7012 4.54297 82.7559 5.14909 82.7559 5.97852C82.7559 7.30924 82.5827 8.14779 82.2363 8.49414C82.0358 8.68555 81.776 8.78125 81.457 8.78125C80.8919 8.78125 80.5273 8.48958 80.3633 7.90625C80.2539 7.51432 80.1992 6.88997 80.1992 6.0332ZM81.5391 2.91602C80.418 2.91602 79.5566 3.29883 78.9551 4.06445C78.5358 4.61133 78.3262 5.24935 78.3262 5.97852C78.3262 7.00846 78.6816 7.82422 79.3926 8.42578C79.9577 8.89974 80.6322 9.13672 81.416 9.13672C82.4915 9.13672 83.3346 8.74935 83.9453 7.97461C84.401 7.39128 84.6289 6.7168 84.6289 5.95117C84.6289 4.93034 84.2689 4.13281 83.5488 3.55859C82.9928 3.13021 82.3229 2.91602 81.5391 2.91602ZM88.8535 8.64453H87.8418V5.69141C87.9056 4.73438 88.138 4.15104 88.5391 3.94141C88.6029 3.91406 88.6621 3.90039 88.7168 3.90039C88.8171 3.90039 88.9264 4.00521 89.0449 4.21484C89.209 4.50651 89.3867 4.6888 89.5781 4.76172C89.6693 4.78906 89.7695 4.80273 89.8789 4.80273C90.2435 4.80273 90.5033 4.62956 90.6582 4.2832C90.7129 4.16471 90.7402 4.04167 90.7402 3.91406C90.7402 3.45833 90.5169 3.17122 90.0703 3.05273C89.9609 3.02539 89.847 3.01172 89.7285 3.01172C89.1634 3.01172 88.6667 3.23503 88.2383 3.68164C88.0469 3.90039 87.901 4.13737 87.8008 4.39258L87.7051 3.12109H85.3125V3.47656H86.1055V7.93359C86.1055 8.33464 85.946 8.5625 85.627 8.61719C85.5358 8.63542 85.431 8.64453 85.3125 8.64453V9H89.1816C89.1816 8.79036 89.1224 8.67643 89.0039 8.6582C88.9583 8.64909 88.9082 8.64453 88.8535 8.64453ZM95.9629 9H98.4102C98.4102 8.79036 98.3555 8.67188 98.2461 8.64453C98.2005 8.63542 98.1458 8.63086 98.082 8.63086H97.4531V0.113281H94.4727V0.46875H95.7168V3.50391C95.252 3.10286 94.696 2.90234 94.0488 2.90234C93.1829 2.90234 92.4766 3.23503 91.9297 3.90039C91.4557 4.50195 91.2188 5.25846 91.2188 6.16992C91.2188 7.30013 91.5879 8.13411 92.3262 8.67188C92.7454 8.98177 93.2103 9.13672 93.7207 9.13672C94.5684 9.13672 95.1973 8.77669 95.6074 8.05664C95.6712 7.94727 95.7259 7.83333 95.7715 7.71484L95.9629 9ZM93.0918 6.00586C93.0918 4.67513 93.3789 3.83659 93.9531 3.49023C94.1172 3.39909 94.2904 3.35352 94.4727 3.35352C95.1289 3.35352 95.5345 3.85938 95.6895 4.87109C95.7259 5.14453 95.7441 5.4362 95.7441 5.74609C95.7441 7.11328 95.457 7.98372 94.8828 8.35742C94.7188 8.45768 94.541 8.50781 94.3496 8.50781C93.7116 8.50781 93.3151 7.98828 93.1602 6.94922C93.1146 6.66667 93.0918 6.35221 93.0918 6.00586ZM101.691 6.375C101.691 5.72786 101.974 5.17188 102.539 4.70703C102.639 4.625 102.799 4.50651 103.018 4.35156C103.537 3.97786 103.879 3.65885 104.043 3.39453C104.225 3.10286 104.316 2.77018 104.316 2.39648C104.316 1.63997 103.865 1.12044 102.963 0.837891C102.571 0.719401 102.143 0.660156 101.678 0.660156C100.812 0.660156 100.151 0.85612 99.6953 1.24805C99.4401 1.48503 99.3079 1.75846 99.2988 2.06836C99.2988 2.45117 99.4811 2.68815 99.8457 2.7793C99.9368 2.79753 100.028 2.80664 100.119 2.80664C100.529 2.80664 100.775 2.61979 100.857 2.24609C100.876 2.17318 100.894 2.05924 100.912 1.9043C100.958 1.50326 101.053 1.24805 101.199 1.13867C101.327 1.05664 101.486 1.01562 101.678 1.01562C102.115 1.01562 102.398 1.24349 102.525 1.69922C102.562 1.84505 102.58 2 102.58 2.16406C102.58 2.95703 102.402 3.61784 102.047 4.14648C101.737 4.5931 101.573 4.83464 101.555 4.87109C101.336 5.28125 101.227 5.78255 101.227 6.375H101.691ZM102.484 8.11133C102.484 7.72852 102.311 7.44141 101.965 7.25C101.819 7.17708 101.669 7.14062 101.514 7.14062C101.131 7.14062 100.848 7.3138 100.666 7.66016C100.593 7.80599 100.557 7.95638 100.557 8.11133C100.557 8.50326 100.73 8.78581 101.076 8.95898C101.213 9.0319 101.359 9.06836 101.514 9.06836C101.906 9.06836 102.193 8.9043 102.375 8.57617C102.448 8.43034 102.484 8.27539 102.484 8.11133Z" fill="white"/>
</svg>
