<svg width="333" height="116" viewBox="0 0 333 116" fill="none" xmlns="http://www.w3.org/2000/svg">
<g filter="url(#filter0_d_1_1114)">
<rect x="30" y="22" width="273" height="56" rx="18" fill="#393948"/>
</g>
<path d="M137.008 56L137.07 52.6094H136.617L136.164 54.0781C135.945 54.776 135.633 55.224 135.227 55.4219C134.987 55.526 134.711 55.5781 134.398 55.5781H132.789V47.0469H134.117V46.625H129.352V47.0469H130.602V55.5781H129.352V56H137.008ZM139.68 52.6094C139.68 51.151 139.857 50.2188 140.211 49.8125C140.43 49.5729 140.737 49.4531 141.133 49.4531C141.799 49.4531 142.227 49.7917 142.414 50.4688C142.539 50.9062 142.602 51.599 142.602 52.5469C142.602 54.0677 142.404 55.026 142.008 55.4219C141.779 55.6406 141.482 55.75 141.117 55.75C140.471 55.75 140.055 55.4167 139.867 54.75C139.742 54.3021 139.68 53.5885 139.68 52.6094ZM141.211 49.0469C139.93 49.0469 138.945 49.4844 138.258 50.3594C137.779 50.9844 137.539 51.7135 137.539 52.5469C137.539 53.724 137.945 54.6562 138.758 55.3438C139.404 55.8854 140.174 56.1562 141.07 56.1562C142.299 56.1562 143.263 55.7135 143.961 54.8281C144.482 54.1615 144.742 53.3906 144.742 52.5156C144.742 51.349 144.331 50.4375 143.508 49.7812C142.872 49.2917 142.107 49.0469 141.211 49.0469ZM147.867 51.6875C147.867 50.6562 147.982 50.0052 148.211 49.7344C148.378 49.5469 148.622 49.4531 148.945 49.4531C149.466 49.4531 149.794 49.6927 149.93 50.1719C150.003 50.4635 150.039 50.9531 150.039 51.6406C150.039 52.6927 149.914 53.3594 149.664 53.6406C149.487 53.8177 149.242 53.9062 148.93 53.9062C148.419 53.9062 148.102 53.6667 147.977 53.1875C147.904 52.9062 147.867 52.4062 147.867 51.6875ZM149.008 49.0469C147.799 49.0469 146.914 49.4323 146.352 50.2031C146.039 50.6302 145.883 51.1094 145.883 51.6406C145.883 52.3906 146.247 53.0469 146.977 53.6094C147.112 53.7135 147.253 53.8073 147.398 53.8906H147.383C146.768 53.8802 146.341 54.151 146.102 54.7031C146.018 54.9115 145.977 55.1198 145.977 55.3281C145.987 55.8281 146.18 56.2344 146.555 56.5469C146.284 56.8698 146.148 57.1875 146.148 57.5C146.148 58.0625 146.518 58.4844 147.258 58.7656C147.758 58.9531 148.362 59.0469 149.07 59.0469C150.779 59.0469 151.883 58.6458 152.383 57.8438C152.539 57.5938 152.617 57.3333 152.617 57.0625C152.617 56.0104 152.044 55.4115 150.898 55.2656C150.763 55.2448 150.622 55.2344 150.477 55.2344L147.242 55.1719C146.971 55.1615 146.81 55.0417 146.758 54.8125C146.747 54.7812 146.742 54.75 146.742 54.7188C146.742 54.4792 146.872 54.3438 147.133 54.3125C147.174 54.3021 147.216 54.2969 147.258 54.2969L148.93 54.3125C150.076 54.3125 150.94 53.9219 151.523 53.1406C151.857 52.6823 152.023 52.1719 152.023 51.6094C152.013 50.849 151.727 50.224 151.164 49.7344C151.352 49.4427 151.57 49.2917 151.82 49.2812C151.956 49.2812 152.122 49.3698 152.32 49.5469C152.477 49.6719 152.622 49.7344 152.758 49.7344C153.07 49.7344 153.263 49.5885 153.336 49.2969C153.346 49.2448 153.352 49.1927 153.352 49.1406C153.352 48.7656 153.169 48.5 152.805 48.3438C152.638 48.2708 152.456 48.2344 152.258 48.2344C151.716 48.2344 151.294 48.5469 150.992 49.1719C150.94 49.2865 150.893 49.401 150.852 49.5156C150.352 49.2031 149.737 49.0469 149.008 49.0469ZM149.07 58.625C147.799 58.625 147.034 58.3438 146.773 57.7812C146.721 57.6667 146.695 57.5521 146.695 57.4375C146.695 57.2188 146.773 57 146.93 56.7812C147.138 56.8646 147.357 56.9062 147.586 56.9062L150.742 56.9375C151.346 56.9375 151.701 57.0312 151.805 57.2188C151.846 57.2917 151.867 57.3802 151.867 57.4844C151.867 57.974 151.383 58.3125 150.414 58.5C150.008 58.5833 149.56 58.625 149.07 58.625ZM156.977 55.5938H156.398V49.2812H153.508V49.6875H154.414V54.7812C154.414 55.2396 154.232 55.5 153.867 55.5625C153.763 55.5833 153.643 55.5938 153.508 55.5938V56H157.352C157.352 55.7604 157.284 55.6302 157.148 55.6094C157.096 55.599 157.039 55.5938 156.977 55.5938ZM156.539 47.2344C156.539 46.776 156.336 46.4375 155.93 46.2188C155.753 46.1146 155.565 46.0625 155.367 46.0625C154.919 46.0625 154.581 46.2656 154.352 46.6719C154.258 46.849 154.211 47.0365 154.211 47.2344C154.211 47.6927 154.414 48.026 154.82 48.2344C154.997 48.3281 155.18 48.375 155.367 48.375C155.826 48.375 156.164 48.1823 156.383 47.7969C156.487 47.6198 156.539 47.4323 156.539 47.2344ZM161.258 55.5938H160.867L160.883 51.5938C160.956 50.7708 161.258 50.2292 161.789 49.9688C161.935 49.8958 162.086 49.8594 162.242 49.8594C162.836 49.8594 163.185 50.2083 163.289 50.9062C163.31 51.0417 163.32 51.1823 163.32 51.3281V54.7812C163.32 55.2188 163.206 55.474 162.977 55.5469C162.872 55.5781 162.747 55.5938 162.602 55.5938V56H166.211C166.211 55.7604 166.143 55.6302 166.008 55.6094C165.945 55.599 165.883 55.5938 165.82 55.5938H165.305V51.5938C165.305 50.3021 164.846 49.4948 163.93 49.1719C163.68 49.0885 163.419 49.0469 163.148 49.0469C162.388 49.0469 161.742 49.349 161.211 49.9531C161.055 50.1302 160.93 50.3125 160.836 50.5L160.758 49.2812H157.977V49.6875H158.883V54.7812C158.883 55.2604 158.659 55.526 158.211 55.5781C158.138 55.5885 158.06 55.5938 157.977 55.5938V56H161.633C161.633 55.7604 161.565 55.6302 161.43 55.6094C161.378 55.599 161.32 55.5938 161.258 55.5938ZM173.18 49.6875V49.2812H169.57V49.6875H170.227L172.039 54.9375C172.258 55.5625 172.477 55.9219 172.695 56.0156C172.799 56.0573 172.93 56.0781 173.086 56.0781H173.602L175.055 51.5625L176.211 54.9375C176.419 55.5312 176.591 55.875 176.727 55.9688C176.841 56.0417 177.003 56.0781 177.211 56.0781H177.727L179.68 50.1406C179.867 49.8594 180.065 49.7083 180.273 49.6875C180.461 49.6875 180.56 49.6042 180.57 49.4375C180.581 49.3854 180.586 49.3333 180.586 49.2812H178.367V49.6875H179.336L177.883 54.25L176.352 49.6875H177.289V49.2812H174.258L174.789 50.8438L173.758 54.2344L172.242 49.6875H173.18ZM184.445 55.5938H183.867V49.2812H180.977V49.6875H181.883V54.7812C181.883 55.2396 181.701 55.5 181.336 55.5625C181.232 55.5833 181.112 55.5938 180.977 55.5938V56H184.82C184.82 55.7604 184.753 55.6302 184.617 55.6094C184.565 55.599 184.508 55.5938 184.445 55.5938ZM184.008 47.2344C184.008 46.776 183.805 46.4375 183.398 46.2188C183.221 46.1146 183.034 46.0625 182.836 46.0625C182.388 46.0625 182.049 46.2656 181.82 46.6719C181.727 46.849 181.68 47.0365 181.68 47.2344C181.68 47.6927 181.883 48.026 182.289 48.2344C182.466 48.3281 182.648 48.375 182.836 48.375C183.294 48.375 183.633 48.1823 183.852 47.7969C183.956 47.6198 184.008 47.4323 184.008 47.2344ZM185.367 49.7656H186.445V53.6719C186.445 55.1823 187.07 56.0104 188.32 56.1562C188.445 56.1667 188.57 56.1719 188.695 56.1719C189.497 56.1719 190.049 55.9115 190.352 55.3906C190.497 55.1302 190.612 54.7865 190.695 54.3594L190.273 54.2969C190.065 55.1406 189.758 55.6042 189.352 55.6875C189.289 55.6979 189.227 55.7031 189.164 55.7031C188.779 55.7031 188.544 55.4323 188.461 54.8906C188.44 54.7656 188.43 54.6354 188.43 54.5V49.7656H190.492V49.3594H188.43V47.5469L186.445 47.875V49.3594H185.367V49.7656ZM194.383 55.5938H193.992V51.8438C193.992 50.9271 194.273 50.3177 194.836 50.0156C195.013 49.9219 195.185 49.875 195.352 49.875C195.987 49.875 196.341 50.2656 196.414 51.0469C196.424 51.1302 196.43 51.224 196.43 51.3281V54.7812C196.43 55.1979 196.367 55.4427 196.242 55.5156C196.138 55.5677 195.997 55.5938 195.82 55.5938V56H199.32C199.32 55.7604 199.253 55.6302 199.117 55.6094C199.055 55.599 198.992 55.5938 198.93 55.5938H198.414V51.5938C198.414 50.2917 197.951 49.4844 197.023 49.1719C196.794 49.0885 196.544 49.0469 196.273 49.0469C195.43 49.0469 194.758 49.3698 194.258 50.0156C194.154 50.1615 194.065 50.3073 193.992 50.4531V45.8438H191.086V46.25H192.008V54.7812C192.008 55.2708 191.773 55.5365 191.305 55.5781C191.232 55.5885 191.159 55.5938 191.086 55.5938V56H194.758C194.758 55.7604 194.69 55.6302 194.555 55.6094C194.503 55.599 194.445 55.5938 194.383 55.5938ZM208.648 51.6875V52.1094H209.977V55.0938C209.497 55.4688 208.93 55.6562 208.273 55.6562C207.003 55.6562 206.185 54.9896 205.82 53.6562C205.654 53.0312 205.57 52.2604 205.57 51.3438C205.57 48.6042 206.388 47.1458 208.023 46.9688C208.148 46.9583 208.273 46.9531 208.398 46.9531C209.888 46.9531 210.831 47.9375 211.227 49.9062C211.227 49.9167 211.227 49.9271 211.227 49.9375H211.711L211.648 46.625L210.18 46.9219C209.461 46.6198 208.706 46.4688 207.914 46.4688C206.487 46.4688 205.326 46.9115 204.43 47.7969C203.576 48.6719 203.148 49.8333 203.148 51.2812C203.148 53.1458 203.82 54.5104 205.164 55.375C205.977 55.8854 206.909 56.1406 207.961 56.1406C208.794 56.1406 209.555 55.9844 210.242 55.6719L212.133 56V52.1094H213.148V51.6875H208.648ZM216.07 52.6094C216.07 51.151 216.247 50.2188 216.602 49.8125C216.82 49.5729 217.128 49.4531 217.523 49.4531C218.19 49.4531 218.617 49.7917 218.805 50.4688C218.93 50.9062 218.992 51.599 218.992 52.5469C218.992 54.0677 218.794 55.026 218.398 55.4219C218.169 55.6406 217.872 55.75 217.508 55.75C216.862 55.75 216.445 55.4167 216.258 54.75C216.133 54.3021 216.07 53.5885 216.07 52.6094ZM217.602 49.0469C216.32 49.0469 215.336 49.4844 214.648 50.3594C214.169 50.9844 213.93 51.7135 213.93 52.5469C213.93 53.724 214.336 54.6562 215.148 55.3438C215.794 55.8854 216.565 56.1562 217.461 56.1562C218.69 56.1562 219.654 55.7135 220.352 54.8281C220.872 54.1615 221.133 53.3906 221.133 52.5156C221.133 51.349 220.721 50.4375 219.898 49.7812C219.263 49.2917 218.497 49.0469 217.602 49.0469ZM224.211 52.6094C224.211 51.151 224.388 50.2188 224.742 49.8125C224.961 49.5729 225.268 49.4531 225.664 49.4531C226.331 49.4531 226.758 49.7917 226.945 50.4688C227.07 50.9062 227.133 51.599 227.133 52.5469C227.133 54.0677 226.935 55.026 226.539 55.4219C226.31 55.6406 226.013 55.75 225.648 55.75C225.003 55.75 224.586 55.4167 224.398 54.75C224.273 54.3021 224.211 53.5885 224.211 52.6094ZM225.742 49.0469C224.461 49.0469 223.477 49.4844 222.789 50.3594C222.31 50.9844 222.07 51.7135 222.07 52.5469C222.07 53.724 222.477 54.6562 223.289 55.3438C223.935 55.8854 224.706 56.1562 225.602 56.1562C226.831 56.1562 227.794 55.7135 228.492 54.8281C229.013 54.1615 229.273 53.3906 229.273 52.5156C229.273 51.349 228.862 50.4375 228.039 49.7812C227.404 49.2917 226.638 49.0469 225.742 49.0469ZM232.398 51.6875C232.398 50.6562 232.513 50.0052 232.742 49.7344C232.909 49.5469 233.154 49.4531 233.477 49.4531C233.997 49.4531 234.326 49.6927 234.461 50.1719C234.534 50.4635 234.57 50.9531 234.57 51.6406C234.57 52.6927 234.445 53.3594 234.195 53.6406C234.018 53.8177 233.773 53.9062 233.461 53.9062C232.951 53.9062 232.633 53.6667 232.508 53.1875C232.435 52.9062 232.398 52.4062 232.398 51.6875ZM233.539 49.0469C232.331 49.0469 231.445 49.4323 230.883 50.2031C230.57 50.6302 230.414 51.1094 230.414 51.6406C230.414 52.3906 230.779 53.0469 231.508 53.6094C231.643 53.7135 231.784 53.8073 231.93 53.8906H231.914C231.299 53.8802 230.872 54.151 230.633 54.7031C230.549 54.9115 230.508 55.1198 230.508 55.3281C230.518 55.8281 230.711 56.2344 231.086 56.5469C230.815 56.8698 230.68 57.1875 230.68 57.5C230.68 58.0625 231.049 58.4844 231.789 58.7656C232.289 58.9531 232.893 59.0469 233.602 59.0469C235.31 59.0469 236.414 58.6458 236.914 57.8438C237.07 57.5938 237.148 57.3333 237.148 57.0625C237.148 56.0104 236.576 55.4115 235.43 55.2656C235.294 55.2448 235.154 55.2344 235.008 55.2344L231.773 55.1719C231.503 55.1615 231.341 55.0417 231.289 54.8125C231.279 54.7812 231.273 54.75 231.273 54.7188C231.273 54.4792 231.404 54.3438 231.664 54.3125C231.706 54.3021 231.747 54.2969 231.789 54.2969L233.461 54.3125C234.607 54.3125 235.471 53.9219 236.055 53.1406C236.388 52.6823 236.555 52.1719 236.555 51.6094C236.544 50.849 236.258 50.224 235.695 49.7344C235.883 49.4427 236.102 49.2917 236.352 49.2812C236.487 49.2812 236.654 49.3698 236.852 49.5469C237.008 49.6719 237.154 49.7344 237.289 49.7344C237.602 49.7344 237.794 49.5885 237.867 49.2969C237.878 49.2448 237.883 49.1927 237.883 49.1406C237.883 48.7656 237.701 48.5 237.336 48.3438C237.169 48.2708 236.987 48.2344 236.789 48.2344C236.247 48.2344 235.826 48.5469 235.523 49.1719C235.471 49.2865 235.424 49.401 235.383 49.5156C234.883 49.2031 234.268 49.0469 233.539 49.0469ZM233.602 58.625C232.331 58.625 231.565 58.3438 231.305 57.7812C231.253 57.6667 231.227 57.5521 231.227 57.4375C231.227 57.2188 231.305 57 231.461 56.7812C231.669 56.8646 231.888 56.9062 232.117 56.9062L235.273 56.9375C235.878 56.9375 236.232 57.0312 236.336 57.2188C236.378 57.2917 236.398 57.3802 236.398 57.4844C236.398 57.974 235.914 58.3125 234.945 58.5C234.539 58.5833 234.091 58.625 233.602 58.625ZM241.867 55.5938H241.086V45.8438H237.883V46.25H239.102V54.75C239.102 55.1771 238.93 55.4375 238.586 55.5312C238.409 55.5729 238.174 55.5938 237.883 55.5938V56H242.242C242.242 55.7604 242.174 55.6302 242.039 55.6094C241.987 55.599 241.93 55.5938 241.867 55.5938ZM246.492 49.4531C247.159 49.474 247.497 50.0417 247.508 51.1562C247.508 51.6458 247.362 51.9479 247.07 52.0625C246.862 52.1354 246.549 52.1615 246.133 52.1406L245.133 52.0938C245.206 50.3646 245.659 49.4844 246.492 49.4531ZM249.414 54.3906L249.039 54.2656C248.747 54.901 248.289 55.3333 247.664 55.5625C247.414 55.6562 247.159 55.7031 246.898 55.7031C246.065 55.7031 245.529 55.1719 245.289 54.1094C245.195 53.6719 245.143 53.151 245.133 52.5469L246.57 52.5938C248.247 52.6458 249.221 52.3802 249.492 51.7969C249.555 51.651 249.586 51.4896 249.586 51.3125C249.586 50.4271 249.133 49.7812 248.227 49.375C247.716 49.1562 247.138 49.0469 246.492 49.0469C245.315 49.0469 244.398 49.4479 243.742 50.25C243.242 50.875 242.992 51.651 242.992 52.5781C242.992 54.0885 243.56 55.1406 244.695 55.7344C245.237 56.0156 245.852 56.1562 246.539 56.1562C247.758 56.1562 248.633 55.7292 249.164 54.875C249.268 54.7188 249.352 54.5573 249.414 54.3906Z" fill="white"/>
<path d="M89.0005 42.0272C90.8632 41.9986 92.6646 42.6925 94.0267 43.9635L97.6955 40.376C95.3417 38.1704 92.2259 36.961 89.0005 37.001C86.5905 37.0004 84.228 37.6703 82.177 38.9356C80.126 40.201 78.4674 42.0119 77.3867 44.166L81.5905 47.4297C82.1045 45.8668 83.0961 44.5046 84.4256 43.5354C85.755 42.5661 87.3552 42.0386 89.0005 42.0272V42.0272Z" fill="#E43E2B"/>
<path d="M101.48 50.2901C101.495 49.3964 101.403 48.5041 101.205 47.6326H89.0001V52.4576H96.1651C96.0292 53.3035 95.7236 54.1132 95.2667 54.838C94.8098 55.5628 94.211 56.1877 93.5063 56.6751L97.6088 59.8526C98.8874 58.6181 99.8929 57.1293 100.56 55.4822C101.228 53.8351 101.542 52.0663 101.484 50.2901H101.48Z" fill="#3B7DED"/>
<path d="M81.6054 52.5716C81.3212 51.744 81.1747 50.8754 81.1717 50.0004C81.1769 49.1267 81.3181 48.2592 81.5904 47.4291L77.3867 44.1654C76.4749 45.9755 76 47.9742 76 50.001C76 52.0278 76.4749 54.0264 77.3867 55.8366L81.6054 52.5716Z" fill="#F0B501"/>
<path d="M89.0004 63.0008C92.167 63.0903 95.2476 61.9636 97.6092 59.852L93.5067 56.6745C92.1765 57.5663 90.6012 58.0208 89.0004 57.9745C87.3566 57.9648 85.7576 57.4376 84.4302 56.4679C83.1028 55.4982 82.1145 54.1351 81.6054 52.572L77.4017 55.837C78.4794 57.9901 80.1353 59.8007 82.1838 61.0659C84.2323 62.3311 86.5927 63.0011 89.0004 63.0008Z" fill="#2BA24C"/>
<defs>
<filter id="filter0_d_1_1114" x="0" y="0" width="333" height="116" filterUnits="userSpaceOnUse" color-interpolation-filters="sRGB">
<feFlood flood-opacity="0" result="BackgroundImageFix"/>
<feColorMatrix in="SourceAlpha" type="matrix" values="0 0 0 0 0 0 0 0 0 0 0 0 0 0 0 0 0 0 127 0" result="hardAlpha"/>
<feOffset dy="8"/>
<feGaussianBlur stdDeviation="15"/>
<feColorMatrix type="matrix" values="0 0 0 0 0.311869 0 0 0 0 0.334042 0 0 0 0 0.533594 0 0 0 0.06 0"/>
<feBlend mode="normal" in2="BackgroundImageFix" result="effect1_dropShadow_1_1114"/>
<feBlend mode="normal" in="SourceGraphic" in2="effect1_dropShadow_1_1114" result="shape"/>
</filter>
</defs>
</svg>
