<svg width="341" height="128" viewBox="0 0 341 128" fill="none" xmlns="http://www.w3.org/2000/svg">
<g filter="url(#filter0_d_1_1135)">
<path fill-rule="evenodd" clip-rule="evenodd" d="M35 40C35 31.7157 41.7157 25 50 25H291C299.284 25 306 31.7157 306 40V68C306 76.2843 299.284 83 291 83H50C41.7157 83 35 76.2843 35 68V40Z" fill="#5669FF"/>
</g>
<circle cx="277" cy="54" r="15" fill="#3D56F0"/>
<path d="M270 53.5C270 53.0513 270.364 52.6875 270.812 52.6875H279.872L275.911 48.7267C275.587 48.4029 275.592 47.8766 275.921 47.5587C276.243 47.2485 276.753 47.2531 277.069 47.5688L282.936 53.4356C282.971 53.4712 282.971 53.5288 282.936 53.5644L277.07 59.43C276.755 59.7448 276.245 59.7448 275.93 59.43C275.616 59.1162 275.615 58.6078 275.927 58.2926L279.872 54.3125H270.812C270.364 54.3125 270 53.9487 270 53.5Z" fill="white"/>
<path d="M145.961 56.5156C145.961 55.599 145.461 54.8542 144.461 54.2812C144.294 54.1771 143.701 53.8958 142.68 53.4375C141.763 53.0312 141.185 52.6146 140.945 52.1875C140.831 51.9583 140.773 51.7188 140.773 51.4688C140.773 50.8021 141.096 50.3385 141.742 50.0781C142.023 49.9635 142.331 49.9062 142.664 49.9062C143.529 49.9062 144.185 50.2031 144.633 50.7969C144.945 51.2031 145.096 51.7031 145.086 52.2969H145.586V49.5469C145.315 49.5469 145.164 49.6354 145.133 49.8125C145.112 49.8854 145.102 49.974 145.102 50.0781C144.331 49.6719 143.482 49.4688 142.555 49.4688C141.419 49.4688 140.534 49.7812 139.898 50.4062C139.471 50.8333 139.258 51.3438 139.258 51.9375C139.258 52.8125 139.742 53.526 140.711 54.0781C140.888 54.1823 141.482 54.4635 142.492 54.9219C143.419 55.3385 144.008 55.7656 144.258 56.2031C144.383 56.4323 144.445 56.6823 144.445 56.9531C144.445 57.6823 144.102 58.2031 143.414 58.5156C143.091 58.651 142.737 58.7188 142.352 58.7188C140.841 58.7188 139.966 57.849 139.727 56.1094C139.716 55.9948 139.706 55.8854 139.695 55.7812H139.195V59.0312C139.445 59.0312 139.596 58.9583 139.648 58.8125C139.669 58.7188 139.68 58.5677 139.68 58.3594C140.482 58.8906 141.404 59.1562 142.445 59.1562C143.654 59.1562 144.591 58.8333 145.258 58.1875C145.727 57.7188 145.961 57.1615 145.961 56.5156ZM152.273 59C152.273 58.7708 152.19 58.6406 152.023 58.6094C151.971 58.599 151.919 58.5938 151.867 58.5938H151.023V50.0312H152.273V49.625H148.273V50.0312H149.523V58.5938H148.273V59H152.273ZM160.227 54.7656V55.1719H161.617V57.75C161.003 58.3333 160.268 58.6458 159.414 58.6875C157.56 58.6875 156.555 57.4844 156.398 55.0781C156.378 54.8281 156.367 54.5729 156.367 54.3125C156.367 51.7188 157.174 50.2708 158.789 49.9688C158.987 49.9375 159.19 49.9219 159.398 49.9219C160.461 49.9219 161.232 50.2448 161.711 50.8906C162.013 51.3073 162.273 51.9271 162.492 52.75H162.914L162.852 49.6562L161.461 49.9531C160.805 49.6302 160.096 49.4688 159.336 49.4688C158.055 49.4688 156.966 49.8854 156.07 50.7188C155.112 51.6146 154.633 52.7917 154.633 54.25C154.633 55.9583 155.237 57.2708 156.445 58.1875C157.299 58.8333 158.268 59.1562 159.352 59.1562C160.154 59.1562 160.878 58.9792 161.523 58.625C161.576 58.5938 161.622 58.5677 161.664 58.5469L163.102 59V55.1719H164.242V54.7656H160.227ZM172.789 50.0312H174.102V56.8594L168.242 49.625H165.977V50.0312H167.227V58.5938H165.977V59H169.18C169.18 58.7708 169.096 58.6406 168.93 58.6094C168.878 58.599 168.826 58.5938 168.773 58.5938H167.852V51.5L173.977 59.0781L174.727 58.9219V50.0312H175.977V49.625H172.789V50.0312ZM185.727 59C185.727 58.7708 185.643 58.6406 185.477 58.6094C185.424 58.599 185.372 58.5938 185.32 58.5938H184.477V50.0312H185.727V49.625H181.727V50.0312H182.977V58.5938H181.727V59H185.727ZM194.398 50.0312H195.711V56.8594L189.852 49.625H187.586V50.0312H188.836V58.5938H187.586V59H190.789C190.789 58.7708 190.706 58.6406 190.539 58.6094C190.487 58.599 190.435 58.5938 190.383 58.5938H189.461V51.5L195.586 59.0781L196.336 58.9219V50.0312H197.586V49.625H194.398V50.0312Z" fill="white"/>
<defs>
<filter id="filter0_d_1_1135" x="0" y="0" width="341" height="128" filterUnits="userSpaceOnUse" color-interpolation-filters="sRGB">
<feFlood flood-opacity="0" result="BackgroundImageFix"/>
<feColorMatrix in="SourceAlpha" type="matrix" values="0 0 0 0 0 0 0 0 0 0 0 0 0 0 0 0 0 0 127 0" result="hardAlpha"/>
<feOffset dy="10"/>
<feGaussianBlur stdDeviation="17.5"/>
<feColorMatrix type="matrix" values="0 0 0 0 0.436821 0 0 0 0 0.493977 0 0 0 0 0.786636 0 0 0 0.25 0"/>
<feBlend mode="normal" in2="BackgroundImageFix" result="effect1_dropShadow_1_1135"/>
<feBlend mode="normal" in="SourceGraphic" in2="effect1_dropShadow_1_1135" result="shape"/>
</filter>
</defs>
</svg>
