<svg width="68" height="68" viewBox="0 0 68 68" fill="none" xmlns="http://www.w3.org/2000/svg">
<path d="M0 50.3534V67.9999H17.6485C17.6485 65.6823 17.1919 63.3874 16.305 61.2463C15.418 59.1051 14.118 57.1597 12.4792 55.521C10.8403 53.8824 8.89477 52.5826 6.75358 51.6959C4.61238 50.8092 2.31751 50.3531 0 50.3534Z" fill="url(#paint0_linear_1_1208)"/>
<path d="M67.9974 17.6465V0H50.3516C50.3512 2.31747 50.8074 4.6123 51.6941 6.75343C52.5807 8.89455 53.8805 10.84 55.5191 12.4787C57.1578 14.1174 59.1032 15.4172 61.2442 16.3039C63.3853 17.1906 65.68 17.6468 67.9974 17.6465Z" fill="url(#paint1_linear_1_1208)"/>
<path d="M4.60099 13.4052C9.52535 13.8796 14.1186 15.5429 18.5295 17.7093C24.0716 20.4309 29.0794 23.966 33.9099 27.8008C40.0621 32.668 46.5193 37.0685 53.7377 40.2308C58.3024 42.2303 63.0025 43.698 67.9999 43.7423V30.2096C63.1094 29.8525 58.5396 28.3847 54.1262 26.2992C48.5553 23.674 43.6414 20.0555 38.863 16.2155C32.5101 11.1137 25.7948 6.56973 18.2688 3.34493C13.2375 1.19679 8.05246 -0.289169 2.48681 0.177476C1.65288 0.246242 0.824597 0.371666 0.00769043 0.552879V13.2722C1.53997 13.2026 3.07531 13.247 4.60099 13.4052Z" fill="url(#paint2_linear_1_1208)"/>
<path d="M13.2377 41.9407C18.2689 44.3991 22.883 47.5274 27.2521 51.0051C33.7928 56.206 40.5862 61.0132 48.2843 64.3762C53.5449 66.6755 58.9724 68.3179 64.8222 67.8226C65.8936 67.7402 66.9559 67.5657 67.9974 67.3012V54.3185C63.6648 54.8556 59.3948 54.256 55.1951 52.9916C48.5867 51.0051 42.7291 47.577 37.3068 43.398C32.4163 39.6283 27.6145 35.744 22.3043 32.5609C15.4196 28.4341 8.31328 24.8834 0.0938432 24.3802H0V37.7096H0.0286717C4.69496 38.304 9.04321 39.8943 13.2377 41.9407Z" fill="url(#paint3_linear_1_1208)"/>
<defs>
<linearGradient id="paint0_linear_1_1208" x1="5" y1="58.9999" x2="21" y2="75.9999" gradientUnits="userSpaceOnUse">
<stop stop-color="white" stop-opacity="0.94"/>
<stop offset="1" stop-color="#070909" stop-opacity="0.29"/>
</linearGradient>
<linearGradient id="paint1_linear_1_1208" x1="55" y1="4" x2="78" y2="26" gradientUnits="userSpaceOnUse">
<stop stop-color="white" stop-opacity="0.94"/>
<stop offset="1" stop-color="#070909" stop-opacity="0.29"/>
</linearGradient>
<linearGradient id="paint2_linear_1_1208" x1="-1.63462e-05" y1="-0.999816" x2="85.5" y2="53.5002" gradientUnits="userSpaceOnUse">
<stop stop-color="white"/>
<stop offset="0.442708" stop-color="white"/>
<stop offset="1" stop-color="#070909" stop-opacity="0.57"/>
</linearGradient>
<linearGradient id="paint3_linear_1_1208" x1="-3.01807e-08" y1="25.4999" x2="77" y2="74.4999" gradientUnits="userSpaceOnUse">
<stop stop-color="white" stop-opacity="0.94"/>
<stop offset="0.39931" stop-color="white"/>
<stop offset="1" stop-color="#070909" stop-opacity="0.29"/>
</linearGradient>
</defs>
</svg>
