<svg width="317" height="56" viewBox="0 0 317 56" fill="none" xmlns="http://www.w3.org/2000/svg">
<rect width="317" height="56" rx="12" fill="#393948"/>
<path d="M30.0548 25.6605V23.6924C30.0548 21.3888 28.1866 19.5206 25.883 19.5206C23.5795 19.5106 21.704 21.3696 21.6939 23.6741V23.6924V25.6605" stroke="white" stroke-width="1.5" stroke-linecap="round" stroke-linejoin="round"/>
<path fill-rule="evenodd" clip-rule="evenodd" d="M29.3763 36.4788H22.372C20.4525 36.4788 18.896 34.9232 18.896 33.0028V29.0712C18.896 27.1508 20.4525 25.5952 22.372 25.5952H29.3763C31.2958 25.5952 32.8523 27.1508 32.8523 29.0712V33.0028C32.8523 34.9232 31.2958 36.4788 29.3763 36.4788Z" stroke="white" stroke-width="1.5" stroke-linecap="round" stroke-linejoin="round"/>
<path d="M25.8743 30.0191V32.0551" stroke="white" stroke-width="1.5" stroke-linecap="round" stroke-linejoin="round"/>
<path fill-rule="evenodd" clip-rule="evenodd" d="M288.096 33.9607C288.388 33.9865 288.689 34 289 34C293.909 34 298 28 298 28C298 28 297.33 27.0179 296.208 25.8484L288.096 33.9607Z" fill="#ADADB8"/>
<path fill-rule="evenodd" clip-rule="evenodd" d="M291.505 22.4949C290.708 22.187 289.867 22 289 22C282.455 22 280 28 280 28C280 28 280.75 29.8335 282.527 31.4734L286 28C286 26.3431 287.343 25 289 25L291.505 22.4949Z" fill="#ADADB8"/>
<rect opacity="0.3" x="282.1" y="34.435" width="19" height="2" transform="rotate(-45 282.1 34.435)" fill="#ADADB8"/>
</svg>
