<svg width="136" height="23" viewBox="0 0 136 23" fill="none" xmlns="http://www.w3.org/2000/svg">
<path d="M56.8398 15V14.6309H55.7461V11.2539H56.416L58.4531 15.0137L60.8594 15C60.8594 14.7995 60.7865 14.6855 60.6406 14.6582C60.5951 14.6491 60.5495 14.6445 60.5039 14.6445H60.3262L58.2207 11.0898C59.1777 10.8255 59.7656 10.306 59.9844 9.53125C60.0391 9.33984 60.0664 9.14388 60.0664 8.94336C60.0664 8.26888 59.7656 7.72656 59.1641 7.31641C58.6536 6.97005 58.0339 6.79688 57.3047 6.79688H52.7383V7.16602H53.832V14.6309H52.7383V15H56.8398ZM56.4844 7.16602C57.2318 7.16602 57.7148 7.53516 57.9336 8.27344C57.9974 8.51042 58.0293 8.75651 58.0293 9.01172C58.0293 9.79557 57.7923 10.3379 57.3184 10.6387C57.1087 10.7754 56.8672 10.8438 56.5938 10.8438H55.7461V7.16602H56.4844ZM64.332 9.27148C64.9154 9.28971 65.2116 9.78646 65.2207 10.7617C65.2207 11.1901 65.0931 11.4544 64.8379 11.5547C64.6556 11.6185 64.3822 11.6413 64.0176 11.623L63.1426 11.582C63.2064 10.069 63.6029 9.29883 64.332 9.27148ZM66.8887 13.5918L66.5605 13.4824C66.3053 14.0384 65.9043 14.4167 65.3574 14.6172C65.1387 14.6992 64.9154 14.7402 64.6875 14.7402C63.9583 14.7402 63.4889 14.2754 63.2793 13.3457C63.1973 12.9629 63.1517 12.5072 63.1426 11.9785L64.4004 12.0195C65.8678 12.0651 66.7201 11.8327 66.957 11.3223C67.0117 11.1947 67.0391 11.0534 67.0391 10.8984C67.0391 10.1237 66.6426 9.55859 65.8496 9.20312C65.403 9.01172 64.8971 8.91602 64.332 8.91602C63.3021 8.91602 62.5 9.26693 61.9258 9.96875C61.4883 10.5156 61.2695 11.1947 61.2695 12.0059C61.2695 13.3275 61.7663 14.248 62.7598 14.7676C63.2337 15.0137 63.7715 15.1367 64.373 15.1367C65.4395 15.1367 66.2051 14.763 66.6699 14.0156C66.7611 13.8789 66.834 13.7376 66.8887 13.5918ZM70.416 14.6445H70.1699L70.1836 11.1172C70.2383 10.3971 70.4753 9.92773 70.8945 9.70898C71.013 9.64518 71.1315 9.61328 71.25 9.61328C71.5872 9.61328 71.8288 9.82292 71.9746 10.2422C72.0384 10.4427 72.0703 10.666 72.0703 10.9121V13.9336C72.0703 14.3073 71.9837 14.5306 71.8105 14.6035C71.7285 14.6309 71.6146 14.6445 71.4688 14.6445V15H74.3672C74.3672 14.7904 74.3079 14.6764 74.1895 14.6582C74.1348 14.6491 74.0801 14.6445 74.0254 14.6445H73.793V11.1445V11.0488C73.8568 10.2923 74.1029 9.82292 74.5312 9.64062C74.6224 9.60417 74.7135 9.58594 74.8047 9.58594C75.1966 9.58594 75.4655 9.81836 75.6113 10.2832C75.666 10.4746 75.6934 10.6842 75.6934 10.9121V13.9336C75.6934 14.3073 75.6068 14.5306 75.4336 14.6035C75.3516 14.6309 75.2376 14.6445 75.0918 14.6445V15H78.209C78.209 14.7904 78.1497 14.6764 78.0312 14.6582C77.9766 14.6491 77.9219 14.6445 77.8672 14.6445H77.416V11.0762C77.416 10.1829 77.1198 9.54948 76.5273 9.17578C76.2539 9.0026 75.9577 8.91602 75.6387 8.91602C74.7546 8.92513 74.0938 9.34896 73.6562 10.1875C73.4375 9.54036 73.0501 9.13477 72.4941 8.9707C72.3483 8.93424 72.2025 8.91602 72.0566 8.91602C71.1816 8.92513 70.5436 9.32617 70.1426 10.1191L70.0742 9.12109H67.6406V9.47656H68.4336V13.9336C68.4336 14.3529 68.2376 14.5853 67.8457 14.6309C67.7819 14.64 67.7135 14.6445 67.6406 14.6445V15H70.7441C70.7441 14.7904 70.6849 14.6764 70.5664 14.6582C70.5208 14.6491 70.4707 14.6445 70.416 14.6445ZM81.8867 9.27148C82.4701 9.28971 82.7663 9.78646 82.7754 10.7617C82.7754 11.1901 82.6478 11.4544 82.3926 11.5547C82.2103 11.6185 81.9368 11.6413 81.5723 11.623L80.6973 11.582C80.7611 10.069 81.1576 9.29883 81.8867 9.27148ZM84.4434 13.5918L84.1152 13.4824C83.86 14.0384 83.459 14.4167 82.9121 14.6172C82.6934 14.6992 82.4701 14.7402 82.2422 14.7402C81.513 14.7402 81.0436 14.2754 80.834 13.3457C80.752 12.9629 80.7064 12.5072 80.6973 11.9785L81.9551 12.0195C83.4225 12.0651 84.2747 11.8327 84.5117 11.3223C84.5664 11.1947 84.5938 11.0534 84.5938 10.8984C84.5938 10.1237 84.1973 9.55859 83.4043 9.20312C82.9577 9.01172 82.4518 8.91602 81.8867 8.91602C80.8568 8.91602 80.0547 9.26693 79.4805 9.96875C79.043 10.5156 78.8242 11.1947 78.8242 12.0059C78.8242 13.3275 79.321 14.248 80.3145 14.7676C80.7884 15.0137 81.3262 15.1367 81.9277 15.1367C82.9941 15.1367 83.7598 14.763 84.2246 14.0156C84.3158 13.8789 84.3887 13.7376 84.4434 13.5918ZM87.9707 14.6445H87.7246L87.7383 11.1172C87.793 10.3971 88.0299 9.92773 88.4492 9.70898C88.5677 9.64518 88.6862 9.61328 88.8047 9.61328C89.1419 9.61328 89.3835 9.82292 89.5293 10.2422C89.5931 10.4427 89.625 10.666 89.625 10.9121V13.9336C89.625 14.3073 89.5384 14.5306 89.3652 14.6035C89.2832 14.6309 89.1693 14.6445 89.0234 14.6445V15H91.9219C91.9219 14.7904 91.8626 14.6764 91.7441 14.6582C91.6895 14.6491 91.6348 14.6445 91.5801 14.6445H91.3477V11.1445V11.0488C91.4115 10.2923 91.6576 9.82292 92.0859 9.64062C92.1771 9.60417 92.2682 9.58594 92.3594 9.58594C92.7513 9.58594 93.0202 9.81836 93.166 10.2832C93.2207 10.4746 93.248 10.6842 93.248 10.9121V13.9336C93.248 14.3073 93.1615 14.5306 92.9883 14.6035C92.9062 14.6309 92.7923 14.6445 92.6465 14.6445V15H95.7637C95.7637 14.7904 95.7044 14.6764 95.5859 14.6582C95.5312 14.6491 95.4766 14.6445 95.4219 14.6445H94.9707V11.0762C94.9707 10.1829 94.6745 9.54948 94.082 9.17578C93.8086 9.0026 93.5124 8.91602 93.1934 8.91602C92.3092 8.92513 91.6484 9.34896 91.2109 10.1875C90.9922 9.54036 90.6048 9.13477 90.0488 8.9707C89.903 8.93424 89.7572 8.91602 89.6113 8.91602C88.7363 8.92513 88.0983 9.32617 87.6973 10.1191L87.6289 9.12109H85.1953V9.47656H85.9883V13.9336C85.9883 14.3529 85.7923 14.5853 85.4004 14.6309C85.3366 14.64 85.2682 14.6445 85.1953 14.6445V15H88.2988C88.2988 14.7904 88.2396 14.6764 88.1211 14.6582C88.0755 14.6491 88.0254 14.6445 87.9707 14.6445ZM100.33 15.1367C101.223 15.1367 101.939 14.7995 102.477 14.125C102.951 13.5326 103.188 12.7806 103.188 11.8691C103.188 10.6842 102.818 9.83203 102.08 9.3125C101.697 9.04818 101.273 8.91602 100.809 8.91602C99.8698 8.92513 99.1634 9.38997 98.6895 10.3105V6.11328H96.1738V6.48242H96.9531V13.9199C96.9531 14.3118 96.8027 14.5397 96.502 14.6035C96.4017 14.6217 96.2923 14.6309 96.1738 14.6309V15H98.2656L98.375 14.043C98.8581 14.763 99.5098 15.1276 100.33 15.1367ZM100.139 9.57227C100.923 9.59049 101.314 10.4199 101.314 12.0605C101.305 13.8561 100.882 14.7585 100.043 14.7676C99.4505 14.7676 99.0495 14.3757 98.8398 13.5918C98.7396 13.2272 98.6895 12.8034 98.6895 12.3203C98.6895 11.0716 98.9538 10.2331 99.4824 9.80469C99.6829 9.64974 99.9017 9.57227 100.139 9.57227ZM107.043 9.27148C107.626 9.28971 107.923 9.78646 107.932 10.7617C107.932 11.1901 107.804 11.4544 107.549 11.5547C107.367 11.6185 107.093 11.6413 106.729 11.623L105.854 11.582C105.917 10.069 106.314 9.29883 107.043 9.27148ZM109.6 13.5918L109.271 13.4824C109.016 14.0384 108.615 14.4167 108.068 14.6172C107.85 14.6992 107.626 14.7402 107.398 14.7402C106.669 14.7402 106.2 14.2754 105.99 13.3457C105.908 12.9629 105.863 12.5072 105.854 11.9785L107.111 12.0195C108.579 12.0651 109.431 11.8327 109.668 11.3223C109.723 11.1947 109.75 11.0534 109.75 10.8984C109.75 10.1237 109.354 9.55859 108.561 9.20312C108.114 9.01172 107.608 8.91602 107.043 8.91602C106.013 8.91602 105.211 9.26693 104.637 9.96875C104.199 10.5156 103.98 11.1947 103.98 12.0059C103.98 13.3275 104.477 14.248 105.471 14.7676C105.945 15.0137 106.482 15.1367 107.084 15.1367C108.15 15.1367 108.916 14.763 109.381 14.0156C109.472 13.8789 109.545 13.7376 109.6 13.5918ZM113.893 14.6445H112.881V11.6914C112.945 10.7344 113.177 10.151 113.578 9.94141C113.642 9.91406 113.701 9.90039 113.756 9.90039C113.856 9.90039 113.965 10.0052 114.084 10.2148C114.248 10.5065 114.426 10.6888 114.617 10.7617C114.708 10.7891 114.809 10.8027 114.918 10.8027C115.283 10.8027 115.542 10.6296 115.697 10.2832C115.752 10.1647 115.779 10.0417 115.779 9.91406C115.779 9.45833 115.556 9.17122 115.109 9.05273C115 9.02539 114.886 9.01172 114.768 9.01172C114.202 9.01172 113.706 9.23503 113.277 9.68164C113.086 9.90039 112.94 10.1374 112.84 10.3926L112.744 9.12109H110.352V9.47656H111.145V13.9336C111.145 14.3346 110.985 14.5625 110.666 14.6172C110.575 14.6354 110.47 14.6445 110.352 14.6445V15H114.221C114.221 14.7904 114.161 14.6764 114.043 14.6582C113.997 14.6491 113.947 14.6445 113.893 14.6445ZM129.355 6.79688H126.416L123.969 12.6758L121.098 6.79688H118.65V7.16602H119.744V14.6309H118.65V15H121.412C121.357 14.7721 121.234 14.6491 121.043 14.6309H120.318V9.47656L123.23 15.1367H123.477L126.416 8.13672V14.6309H125.322V15H129.355C129.301 14.7721 129.178 14.6491 128.986 14.6309H128.262V7.16602H129.355V6.79688ZM132.965 9.27148C133.548 9.28971 133.844 9.78646 133.854 10.7617C133.854 11.1901 133.726 11.4544 133.471 11.5547C133.288 11.6185 133.015 11.6413 132.65 11.623L131.775 11.582C131.839 10.069 132.236 9.29883 132.965 9.27148ZM135.521 13.5918L135.193 13.4824C134.938 14.0384 134.537 14.4167 133.99 14.6172C133.771 14.6992 133.548 14.7402 133.32 14.7402C132.591 14.7402 132.122 14.2754 131.912 13.3457C131.83 12.9629 131.785 12.5072 131.775 11.9785L133.033 12.0195C134.501 12.0651 135.353 11.8327 135.59 11.3223C135.645 11.1947 135.672 11.0534 135.672 10.8984C135.672 10.1237 135.275 9.55859 134.482 9.20312C134.036 9.01172 133.53 8.91602 132.965 8.91602C131.935 8.91602 131.133 9.26693 130.559 9.96875C130.121 10.5156 129.902 11.1947 129.902 12.0059C129.902 13.3275 130.399 14.248 131.393 14.7676C131.867 15.0137 132.404 15.1367 133.006 15.1367C134.072 15.1367 134.838 14.763 135.303 14.0156C135.394 13.8789 135.467 13.7376 135.521 13.5918Z" fill="white"/>
<rect y="2" width="32.3" height="19" rx="9.5" fill="#5669FF"/>
<circle cx="22.8" cy="11.5" r="7.6" fill="white"/>
</svg>
