<svg width="335" height="50" viewBox="0 0 335 50" fill="none" xmlns="http://www.w3.org/2000/svg">
<rect x="0.619565" y="0.619565" width="333.761" height="48.7609" rx="24.3804" fill="#393948" stroke="#747688" stroke-width="1.23913"/>
<path opacity="0.7" d="M29.8945 28V27.6309H28.2812V23.9805H30.9062V23.5703H28.2812V20.166H29.8262C30.6465 20.166 31.1888 20.5944 31.4531 21.4512C31.4622 21.4603 31.4668 21.4694 31.4668 21.4785L31.7676 22.4902H32.1641L32.1094 19.7969H25.2734V20.166H26.3672V27.6309H25.2734V28H29.8945ZM35.6094 27.6445H35.1035V22.1211H32.5742V22.4766H33.3672V26.9336C33.3672 27.3346 33.2077 27.5625 32.8887 27.6172C32.7975 27.6354 32.6927 27.6445 32.5742 27.6445V28H35.9375C35.9375 27.7904 35.8783 27.6764 35.7598 27.6582C35.7142 27.6491 35.6641 27.6445 35.6094 27.6445ZM35.2266 20.3301C35.2266 19.929 35.0488 19.6328 34.6934 19.4414C34.5384 19.3503 34.3743 19.3047 34.2012 19.3047C33.8092 19.3047 33.513 19.4824 33.3125 19.8379C33.2305 19.9928 33.1895 20.1569 33.1895 20.3301C33.1895 20.7311 33.3672 21.0228 33.7227 21.2051C33.8776 21.2871 34.0371 21.3281 34.2012 21.3281C34.6022 21.3281 34.8984 21.1595 35.0898 20.8223C35.181 20.6673 35.2266 20.5033 35.2266 20.3301ZM39.3555 27.6445H39.0137L39.0273 24.1445C39.0911 23.4245 39.3555 22.9505 39.8203 22.7227C39.9479 22.6589 40.0801 22.627 40.2168 22.627C40.7363 22.627 41.0417 22.9323 41.1328 23.543C41.151 23.6615 41.1602 23.7845 41.1602 23.9121V26.9336C41.1602 27.3164 41.0599 27.5397 40.8594 27.6035C40.7682 27.6309 40.6589 27.6445 40.5312 27.6445V28H43.6895C43.6895 27.7904 43.6302 27.6764 43.5117 27.6582C43.457 27.6491 43.4023 27.6445 43.3477 27.6445H42.8965V24.1445C42.8965 23.0143 42.4954 22.3079 41.6934 22.0254C41.4746 21.9525 41.2467 21.916 41.0098 21.916C40.3444 21.916 39.7793 22.1803 39.3145 22.709C39.1777 22.8639 39.0684 23.0234 38.9863 23.1875L38.918 22.1211H36.4844V22.4766H37.2773V26.9336C37.2773 27.3529 37.0814 27.5853 36.6895 27.6309C36.6257 27.64 36.5573 27.6445 36.4844 27.6445V28H39.6836C39.6836 27.7904 39.6243 27.6764 39.5059 27.6582C39.4603 27.6491 39.4102 27.6445 39.3555 27.6445ZM49.0488 28H51.4961C51.4961 27.7904 51.4414 27.6719 51.332 27.6445C51.2865 27.6354 51.2318 27.6309 51.168 27.6309H50.5391V19.1133H47.5586V19.4688H48.8027V22.5039C48.3379 22.1029 47.7819 21.9023 47.1348 21.9023C46.2689 21.9023 45.5625 22.235 45.0156 22.9004C44.5417 23.502 44.3047 24.2585 44.3047 25.1699C44.3047 26.3001 44.6738 27.1341 45.4121 27.6719C45.8314 27.9818 46.2962 28.1367 46.8066 28.1367C47.6543 28.1367 48.2832 27.7767 48.6934 27.0566C48.7572 26.9473 48.8118 26.8333 48.8574 26.7148L49.0488 28ZM46.1777 25.0059C46.1777 23.6751 46.4648 22.8366 47.0391 22.4902C47.2031 22.3991 47.3763 22.3535 47.5586 22.3535C48.2148 22.3535 48.6204 22.8594 48.7754 23.8711C48.8118 24.1445 48.8301 24.4362 48.8301 24.7461C48.8301 26.1133 48.543 26.9837 47.9688 27.3574C47.8047 27.4577 47.627 27.5078 47.4355 27.5078C46.7975 27.5078 46.401 26.9883 46.2461 25.9492C46.2005 25.6667 46.1777 25.3522 46.1777 25.0059ZM61.8184 27.4668C61.8092 27.8132 61.8867 28.0046 62.0508 28.041C62.1146 28.0592 62.1966 28.0684 62.2969 28.0684V25.375H61.8457C61.5085 26.6419 60.9115 27.3939 60.0547 27.6309C59.8177 27.6947 59.5534 27.7266 59.2617 27.7266C58.1042 27.7266 57.3796 27.0703 57.0879 25.7578C56.9785 25.2383 56.9238 24.5957 56.9238 23.8301C56.9329 21.3327 57.7487 20.0794 59.3711 20.0703C60.2279 20.0703 60.8613 20.4212 61.2715 21.123C61.4629 21.4603 61.6315 21.8932 61.7773 22.4219H62.2559L62.2148 19.7285C61.9779 19.7285 61.8366 19.8014 61.791 19.9473C61.7728 20.0384 61.7682 20.1569 61.7773 20.3027C60.9844 19.8743 60.1094 19.6602 59.1523 19.6602C57.6211 19.6602 56.4499 20.1934 55.6387 21.2598C55.0645 22.0254 54.7773 22.9049 54.7773 23.8984C54.7773 25.0742 55.1556 26.0632 55.9121 26.8652C56.7233 27.7129 57.7897 28.1367 59.1113 28.1367C60.0501 28.1367 60.9525 27.9134 61.8184 27.4668ZM64.8535 25.0332C64.8535 23.7572 65.0085 22.9414 65.3184 22.5859C65.5098 22.3763 65.7786 22.2715 66.125 22.2715C66.7083 22.2715 67.082 22.5677 67.2461 23.1602C67.3555 23.543 67.4102 24.1491 67.4102 24.9785C67.4102 26.3092 67.237 27.1478 66.8906 27.4941C66.6901 27.6855 66.4303 27.7812 66.1113 27.7812C65.5462 27.7812 65.1816 27.4896 65.0176 26.9062C64.9082 26.5143 64.8535 25.89 64.8535 25.0332ZM66.1934 21.916C65.0723 21.916 64.2109 22.2988 63.6094 23.0645C63.1901 23.6113 62.9805 24.2493 62.9805 24.9785C62.9805 26.0085 63.3359 26.8242 64.0469 27.4258C64.612 27.8997 65.2865 28.1367 66.0703 28.1367C67.1458 28.1367 67.9889 27.7493 68.5996 26.9746C69.0553 26.3913 69.2832 25.7168 69.2832 24.9512C69.2832 23.9303 68.9232 23.1328 68.2031 22.5586C67.6471 22.1302 66.9772 21.916 66.1934 21.916ZM72.8379 27.6445H72.4961L72.5098 24.1445C72.5736 23.4245 72.8379 22.9505 73.3027 22.7227C73.4303 22.6589 73.5625 22.627 73.6992 22.627C74.2188 22.627 74.5241 22.9323 74.6152 23.543C74.6335 23.6615 74.6426 23.7845 74.6426 23.9121V26.9336C74.6426 27.3164 74.5423 27.5397 74.3418 27.6035C74.2507 27.6309 74.1413 27.6445 74.0137 27.6445V28H77.1719C77.1719 27.7904 77.1126 27.6764 76.9941 27.6582C76.9395 27.6491 76.8848 27.6445 76.8301 27.6445H76.3789V24.1445C76.3789 23.0143 75.9779 22.3079 75.1758 22.0254C74.957 21.9525 74.7292 21.916 74.4922 21.916C73.8268 21.916 73.2617 22.1803 72.7969 22.709C72.6602 22.8639 72.5508 23.0234 72.4688 23.1875L72.4004 22.1211H69.9668V22.4766H70.7598V26.9336C70.7598 27.3529 70.5638 27.5853 70.1719 27.6309C70.1081 27.64 70.0397 27.6445 69.9668 27.6445V28H73.166C73.166 27.7904 73.1068 27.6764 72.9883 27.6582C72.9427 27.6491 72.8926 27.6445 72.8379 27.6445ZM80.5625 22.4629V22.1211H77.4043V22.4629H77.9375L79.6602 27.0703C79.8607 27.5898 80.0202 27.8906 80.1387 27.9727C80.2389 28.0365 80.3848 28.0684 80.5762 28.0684H81.0684L83.0508 22.8594C83.1419 22.6315 83.2604 22.5039 83.4062 22.4766C83.4609 22.4674 83.5156 22.4629 83.5703 22.4629C83.7161 22.4629 83.7982 22.4538 83.8164 22.4355C83.8346 22.3809 83.8438 22.276 83.8438 22.1211H81.6289V22.4629H82.75L81.1367 26.5918L79.6328 22.4629H80.5625ZM87.3438 22.2715C87.9271 22.2897 88.2233 22.7865 88.2324 23.7617C88.2324 24.1901 88.1048 24.4544 87.8496 24.5547C87.6673 24.6185 87.3939 24.6413 87.0293 24.623L86.1543 24.582C86.2181 23.069 86.6146 22.2988 87.3438 22.2715ZM89.9004 26.5918L89.5723 26.4824C89.3171 27.0384 88.916 27.4167 88.3691 27.6172C88.1504 27.6992 87.9271 27.7402 87.6992 27.7402C86.9701 27.7402 86.5007 27.2754 86.291 26.3457C86.209 25.9629 86.1634 25.5072 86.1543 24.9785L87.4121 25.0195C88.8796 25.0651 89.7318 24.8327 89.9688 24.3223C90.0234 24.1947 90.0508 24.0534 90.0508 23.8984C90.0508 23.1237 89.6543 22.5586 88.8613 22.2031C88.4147 22.0117 87.9089 21.916 87.3438 21.916C86.3138 21.916 85.5117 22.2669 84.9375 22.9688C84.5 23.5156 84.2812 24.1947 84.2812 25.0059C84.2812 26.3275 84.778 27.248 85.7715 27.7676C86.2454 28.0137 86.7832 28.1367 87.3848 28.1367C88.4512 28.1367 89.2168 27.763 89.6816 27.0156C89.7728 26.8789 89.8457 26.7376 89.9004 26.5918ZM94.1934 27.6445H93.1816V24.6914C93.2454 23.7344 93.4779 23.151 93.8789 22.9414C93.9427 22.9141 94.002 22.9004 94.0566 22.9004C94.1569 22.9004 94.2663 23.0052 94.3848 23.2148C94.5488 23.5065 94.7266 23.6888 94.918 23.7617C95.0091 23.7891 95.1094 23.8027 95.2188 23.8027C95.5833 23.8027 95.8431 23.6296 95.998 23.2832C96.0527 23.1647 96.0801 23.0417 96.0801 22.9141C96.0801 22.4583 95.8568 22.1712 95.4102 22.0527C95.3008 22.0254 95.1868 22.0117 95.0684 22.0117C94.5033 22.0117 94.0065 22.235 93.5781 22.6816C93.3867 22.9004 93.2409 23.1374 93.1406 23.3926L93.0449 22.1211H90.6523V22.4766H91.4453V26.9336C91.4453 27.3346 91.2858 27.5625 90.9668 27.6172C90.8757 27.6354 90.7708 27.6445 90.6523 27.6445V28H94.5215C94.5215 27.7904 94.4622 27.6764 94.3438 27.6582C94.2982 27.6491 94.248 27.6445 94.1934 27.6445ZM98.8281 27.7539C99.4388 27.7539 99.7897 27.5352 99.8809 27.0977C99.89 27.0339 99.8945 26.9746 99.8945 26.9199C99.8945 26.4551 99.6029 26.0677 99.0195 25.7578C98.8919 25.6849 98.6868 25.5892 98.4043 25.4707C97.7207 25.1699 97.2695 24.8919 97.0508 24.6367C96.8138 24.3633 96.6953 24.0397 96.6953 23.666C96.6953 22.8913 97.1191 22.3672 97.9668 22.0938C98.3223 21.9753 98.7188 21.916 99.1562 21.916C99.8672 21.916 100.423 22.0436 100.824 22.2988C100.824 22.0254 100.906 21.875 101.07 21.8477C101.107 21.8385 101.143 21.834 101.18 21.834V23.543H100.742C100.706 22.7135 100.255 22.2943 99.3887 22.2852C98.8053 22.2852 98.4453 22.4766 98.3086 22.8594C98.2812 22.9505 98.2676 23.0417 98.2676 23.1328C98.2676 23.5247 98.541 23.8574 99.0879 24.1309C99.1973 24.1947 99.3796 24.2812 99.6348 24.3906C100.346 24.7096 100.82 25.0013 101.057 25.2656C101.33 25.5755 101.467 25.9447 101.467 26.373C101.467 27.166 101.057 27.6992 100.236 27.9727C99.8991 28.082 99.5208 28.1367 99.1016 28.1367C98.2995 28.1367 97.625 27.9954 97.0781 27.7129C97.0781 27.9499 97.0189 28.0866 96.9004 28.123C96.8457 28.1322 96.7819 28.1367 96.709 28.1367V26.0586H97.1738C97.1921 27.1797 97.7435 27.7448 98.8281 27.7539ZM107.182 28.1367C107.847 28.1367 108.262 27.8952 108.426 27.4121C108.48 27.2298 108.521 26.9974 108.549 26.7148L108.193 26.7012C108.139 27.3301 107.979 27.6491 107.715 27.6582C107.514 27.64 107.414 27.4121 107.414 26.9746V24.1172C107.414 22.9779 106.885 22.276 105.828 22.0117C105.555 21.9479 105.258 21.916 104.939 21.916C103.7 21.916 102.921 22.1849 102.602 22.7227C102.52 22.8594 102.479 23.0052 102.479 23.1602C102.479 23.5156 102.647 23.7389 102.984 23.8301C103.066 23.8574 103.153 23.8711 103.244 23.8711C103.636 23.8711 103.9 23.6797 104.037 23.2969C104.055 23.2422 104.083 23.151 104.119 23.0234C104.219 22.6589 104.347 22.431 104.502 22.3398C104.602 22.2943 104.716 22.2715 104.844 22.2715C105.272 22.2715 105.532 22.5312 105.623 23.0508C105.66 23.2422 105.678 23.4701 105.678 23.7344V24.623C103.335 24.6686 102.16 25.2884 102.15 26.4824C102.15 27.2936 102.506 27.8132 103.217 28.041C103.426 28.1048 103.659 28.1367 103.914 28.1367C104.689 28.1367 105.258 27.8451 105.623 27.2617C105.696 27.1432 105.755 27.0202 105.801 26.8926C105.992 27.6764 106.452 28.0911 107.182 28.1367ZM104.625 27.5488C104.169 27.5306 103.937 27.125 103.928 26.332C103.928 25.7305 104.174 25.3385 104.666 25.1562C104.93 25.0742 105.268 25.0241 105.678 25.0059V26.332C105.505 26.9701 105.227 27.362 104.844 27.5078C104.762 27.5352 104.689 27.5488 104.625 27.5488ZM108.822 22.5449H109.766V25.9629C109.766 27.2845 110.312 28.0091 111.406 28.1367C111.516 28.1458 111.625 28.1504 111.734 28.1504C112.436 28.1504 112.919 27.9225 113.184 27.4668C113.311 27.2389 113.411 26.9382 113.484 26.5645L113.115 26.5098C112.933 27.248 112.664 27.6536 112.309 27.7266C112.254 27.7357 112.199 27.7402 112.145 27.7402C111.807 27.7402 111.602 27.5033 111.529 27.0293C111.511 26.9199 111.502 26.806 111.502 26.6875V22.5449H113.307V22.1895H111.502V20.6035L109.766 20.8906V22.1895H108.822V22.5449ZM116.93 27.6445H116.424V22.1211H113.895V22.4766H114.688V26.9336C114.688 27.3346 114.528 27.5625 114.209 27.6172C114.118 27.6354 114.013 27.6445 113.895 27.6445V28H117.258C117.258 27.7904 117.199 27.6764 117.08 27.6582C117.035 27.6491 116.984 27.6445 116.93 27.6445ZM116.547 20.3301C116.547 19.929 116.369 19.6328 116.014 19.4414C115.859 19.3503 115.695 19.3047 115.521 19.3047C115.13 19.3047 114.833 19.4824 114.633 19.8379C114.551 19.9928 114.51 20.1569 114.51 20.3301C114.51 20.7311 114.688 21.0228 115.043 21.2051C115.198 21.2871 115.357 21.3281 115.521 21.3281C115.923 21.3281 116.219 21.1595 116.41 20.8223C116.501 20.6673 116.547 20.5033 116.547 20.3301ZM119.814 25.0332C119.814 23.7572 119.969 22.9414 120.279 22.5859C120.471 22.3763 120.74 22.2715 121.086 22.2715C121.669 22.2715 122.043 22.5677 122.207 23.1602C122.316 23.543 122.371 24.1491 122.371 24.9785C122.371 26.3092 122.198 27.1478 121.852 27.4941C121.651 27.6855 121.391 27.7812 121.072 27.7812C120.507 27.7812 120.143 27.4896 119.979 26.9062C119.869 26.5143 119.814 25.89 119.814 25.0332ZM121.154 21.916C120.033 21.916 119.172 22.2988 118.57 23.0645C118.151 23.6113 117.941 24.2493 117.941 24.9785C117.941 26.0085 118.297 26.8242 119.008 27.4258C119.573 27.8997 120.247 28.1367 121.031 28.1367C122.107 28.1367 122.95 27.7493 123.561 26.9746C124.016 26.3913 124.244 25.7168 124.244 24.9512C124.244 23.9303 123.884 23.1328 123.164 22.5586C122.608 22.1302 121.938 21.916 121.154 21.916ZM127.799 27.6445H127.457L127.471 24.1445C127.535 23.4245 127.799 22.9505 128.264 22.7227C128.391 22.6589 128.523 22.627 128.66 22.627C129.18 22.627 129.485 22.9323 129.576 23.543C129.594 23.6615 129.604 23.7845 129.604 23.9121V26.9336C129.604 27.3164 129.503 27.5397 129.303 27.6035C129.212 27.6309 129.102 27.6445 128.975 27.6445V28H132.133C132.133 27.7904 132.074 27.6764 131.955 27.6582C131.9 27.6491 131.846 27.6445 131.791 27.6445H131.34V24.1445C131.34 23.0143 130.939 22.3079 130.137 22.0254C129.918 21.9525 129.69 21.916 129.453 21.916C128.788 21.916 128.223 22.1803 127.758 22.709C127.621 22.8639 127.512 23.0234 127.43 23.1875L127.361 22.1211H124.928V22.4766H125.721V26.9336C125.721 27.3529 125.525 27.5853 125.133 27.6309C125.069 27.64 125.001 27.6445 124.928 27.6445V28H128.127C128.127 27.7904 128.068 27.6764 127.949 27.6582C127.904 27.6491 127.854 27.6445 127.799 27.6445Z" fill="#8193AE"/>
<circle cx="304" cy="24" r="7" stroke="#B3B5CC" stroke-width="2" stroke-linecap="round" stroke-linejoin="round"/>
<path d="M313 33L309.65 29.65" stroke="#B3B5CC" stroke-width="2" stroke-linecap="round" stroke-linejoin="round"/>
</svg>
