<svg width="317" height="56" viewBox="0 0 317 56" fill="none" xmlns="http://www.w3.org/2000/svg">
<rect x="0.5" y="0.5" width="316" height="55" rx="11.5" fill="#393948" stroke="#5669FF"/>
<path d="M30.8288 25.3061L26.9188 28.4541C26.1788 29.0343 25.1416 29.0343 24.4016 28.4541L20.4581 25.3061" stroke="white" stroke-width="1.5" stroke-linecap="round" stroke-linejoin="round"/>
<path fill-rule="evenodd" clip-rule="evenodd" d="M21.3139 20.2083H29.9562C31.2023 20.2223 32.3883 20.7491 33.238 21.666C34.0877 22.5829 34.527 23.81 34.4535 25.0613V31.0452C34.527 32.2965 34.0877 33.5235 33.238 34.4404C32.3883 35.3573 31.2023 35.8841 29.9562 35.8981H21.3139C18.6373 35.8981 16.8333 33.7206 16.8333 31.0452V25.0613C16.8333 22.3858 18.6373 20.2083 21.3139 20.2083Z" stroke="white" stroke-width="1.5" stroke-linecap="round" stroke-linejoin="round"/>
</svg>
