<svg width="52" height="48" viewBox="0 0 52 48" fill="none" xmlns="http://www.w3.org/2000/svg">
<path d="M39.2 25.5C39.2 24.6709 38.5291 24 37.7 24C36.8709 24 36.2 24.6709 36.2 25.5C36.2 31.2891 31.3891 36 25.6 36C19.8109 36 15 31.2891 15 25.5C15 24.6709 14.3291 24 13.5 24C12.6709 24 12 24.6709 12 25.5C12 32.4307 17.3685 38.0911 24.1 38.8484V45H19.5C18.6709 45 18 45.6709 18 46.5C18 47.3291 18.6709 48 19.5 48H31.7C32.5291 48 33.2 47.3291 33.2 46.5C33.2 45.6709 32.5291 45 31.7 45H27.1V38.8484C33.8315 38.0911 39.2 32.4307 39.2 25.5Z" fill="#C8C8C8"/>
<path d="M46.3659 2.27341C45.78 1.68751 44.8307 1.68751 44.2448 2.27341C43.6589 2.85931 43.6589 3.80861 44.2448 4.39451C46.7951 6.94331 48.1999 10.3329 48.1999 13.9394C48.1999 17.5459 46.7951 20.9369 44.2448 23.4857C43.6589 24.0716 43.6589 25.0209 44.2448 25.6068C44.8307 26.1927 45.78 26.1927 46.3659 25.6068C49.4831 22.4911 51.1999 18.3485 51.1999 13.9394C51.1999 9.53171 49.4831 5.38911 46.3659 2.27341Z" fill="#C8C8C8"/>
<path d="M41.9612 6.51853C41.3753 5.93263 40.426 5.93263 39.8401 6.51853C39.2542 7.10443 39.2542 8.05513 39.8401 8.63963C41.2595 10.0576 42.0403 11.9399 42.0403 13.9394C42.0403 15.9389 41.2595 17.8212 39.8401 19.2407C39.2542 19.8267 39.2542 20.7759 39.8401 21.3618C40.426 21.9477 41.3753 21.9477 41.9612 21.3618C43.9475 19.3769 45.0403 16.7402 45.0403 13.9394C45.0403 11.1372 43.9461 8.50193 41.9612 6.51853Z" fill="#C8C8C8"/>
<path d="M37.7204 10.7592C37.1345 10.1733 36.1852 10.1733 35.5993 10.7592C35.0134 11.3451 35.0134 12.2944 35.5993 12.8803C35.8835 13.1645 36.0402 13.5409 36.0402 13.9394C36.0402 14.3393 35.8835 14.7158 35.5993 14.9999C35.0134 15.5858 35.0134 16.5351 35.5993 17.121C36.1852 17.7069 37.1345 17.7069 37.7204 17.121C38.5715 16.2699 39.0402 15.1405 39.0402 13.9394C39.0402 12.7397 38.5714 11.6103 37.7204 10.7592Z" fill="#C8C8C8"/>
<path d="M6.9551 23.4859C4.4048 20.937 3 17.5459 3 13.9395C3 10.3331 4.4048 6.94336 6.9551 4.39456C7.541 3.80866 7.541 2.85936 6.9551 2.27346C6.3692 1.68756 5.4199 1.68746 4.834 2.27336C1.7168 5.38916 0 9.53166 0 13.9395C0 18.3487 1.7168 22.4913 4.834 25.607C5.4199 26.1929 6.3692 26.1929 6.9551 25.607C7.541 25.0211 7.541 24.0718 6.9551 23.4859Z" fill="#C8C8C8"/>
<path d="M9.15967 13.9394C9.15967 11.9399 9.94047 10.0576 11.3599 8.63963C11.9458 8.05513 11.9458 7.10443 11.3599 6.51853C10.774 5.93263 9.82467 5.93263 9.23877 6.51853C7.25387 8.50193 6.15967 11.1372 6.15967 13.9394C6.15967 16.7402 7.25247 19.3769 9.23877 21.3618C9.82467 21.9477 10.774 21.9477 11.3599 21.3618C11.9458 20.7759 11.9458 19.8266 11.3599 19.2407C9.94047 17.8213 9.15967 15.9389 9.15967 13.9394Z" fill="#C8C8C8"/>
<path d="M15.1597 13.9394C15.1597 13.541 15.3164 13.1645 15.6006 12.8803C16.1865 12.2943 16.1865 11.3451 15.6006 10.7592C15.0147 10.1733 14.0654 10.1733 13.4795 10.7592C12.6284 11.6103 12.1597 12.7397 12.1597 13.9394C12.1597 15.1406 12.6285 16.27 13.4795 17.121C14.0654 17.7069 15.0147 17.7069 15.6006 17.121C16.1865 16.5351 16.1865 15.5858 15.6006 14.9999C15.3164 14.7157 15.1597 14.3393 15.1597 13.9394Z" fill="#C8C8C8"/>
<path d="M18 21V25.5C18 29.6353 21.4647 33 25.6 33C29.7353 33 33.2 29.6353 33.2 25.5V21H18Z" fill="#C8C8C8"/>
<path d="M25.6 0C21.4647 0 18 3.3647 18 7.5V18H33.2V7.5C33.2 3.3647 29.7353 0 25.6 0Z" fill="#C8C8C8"/>
</svg>
