<svg width="37" height="48" viewBox="0 0 37 48" fill="none" xmlns="http://www.w3.org/2000/svg">
<path d="M18.2812 28.3125C19.0571 28.3125 19.6875 27.6821 19.6875 26.9062V21.2812C19.6875 20.5054 19.0571 19.875 18.2812 19.875C17.5054 19.875 16.875 20.5054 16.875 21.2812V26.9062C16.875 27.6821 17.5054 28.3125 18.2812 28.3125Z" fill="white"/>
<path d="M8.43751 0.824219L0.823975 8.43775H8.43751V0.824219Z" fill="white"/>
<path d="M11.25 0V11.25H0V48H36.5625V0H11.25ZM14.0625 21.2812C14.0625 18.9549 15.9549 17.0625 18.2812 17.0625C20.6076 17.0625 22.5 18.9549 22.5 21.2812V26.9062C22.5 29.2326 20.6076 31.125 18.2812 31.125C15.9549 31.125 14.0625 29.2326 14.0625 26.9062V21.2812ZM28.125 26.9062C28.125 31.852 24.4453 35.9182 19.6875 36.6079V39.5625H22.5V42.375C17.9964 42.375 17.8191 42.375 14.0625 42.375V39.5625H16.875V36.6079C12.1172 35.9182 8.4375 31.852 8.4375 26.9062V22.6875H11.25V26.9062C11.25 30.7831 14.4044 33.9375 18.2812 33.9375C22.1581 33.9375 25.3125 30.7831 25.3125 26.9062V22.6875H28.125V26.9062ZM30.9375 14.0625H16.875V11.25H30.9375V14.0625ZM30.9375 8.4375H22.5V5.625H30.9375V8.4375Z" fill="white"/>
</svg>
