<svg width="51" height="38" viewBox="0 0 51 38" fill="none" xmlns="http://www.w3.org/2000/svg">
<path fill-rule="evenodd" clip-rule="evenodd" d="M7.3215 10.3384C6.6299 10.3384 6.06946 10.8988 6.06946 11.5904V25.9472C6.06946 26.6388 6.6299 27.1993 7.3215 27.1993C8.01311 27.1993 8.57355 26.6388 8.57355 25.9472V11.5904C8.57355 10.9107 8.01311 10.3384 7.3215 10.3384Z" fill="#C8C8C8"/>
<path fill-rule="evenodd" clip-rule="evenodd" d="M1.25205 13.2119C0.56044 13.2119 0 13.7724 0 14.464V23.0733C0 23.7649 0.56044 24.3253 1.25205 24.3253C1.9675 24.3253 2.50409 23.431 2.50409 22.7871V14.464C2.51602 13.7843 1.94365 13.2119 1.25205 13.2119Z" fill="#C8C8C8"/>
<path fill-rule="evenodd" clip-rule="evenodd" d="M49.748 13.2119C49.0564 13.2119 48.496 13.7724 48.496 14.464V23.0733C48.496 23.7649 49.0564 24.3253 49.748 24.3253C50.4396 24.3253 51.0001 23.7649 51.0001 23.0733V14.464C51.0001 13.7843 50.4396 13.2119 49.748 13.2119Z" fill="#C8C8C8"/>
<path fill-rule="evenodd" clip-rule="evenodd" d="M43.6786 10.3384C42.987 10.3384 42.4265 10.8988 42.4265 11.5904V25.9472C42.4265 26.6388 42.987 27.1993 43.6786 27.1993C44.3702 27.1993 44.9306 26.6388 44.9306 25.9472V11.5904C44.9425 10.9107 44.3702 10.3384 43.6786 10.3384Z" fill="#C8C8C8"/>
<path fill-rule="evenodd" clip-rule="evenodd" d="M37.6211 2.5874C36.9295 2.5874 36.369 3.14784 36.369 3.83945V33.7097C36.369 34.4013 36.9295 34.9617 37.6211 34.9617C38.3127 34.9617 38.8731 34.4013 38.8731 33.7097V3.83945C38.8731 3.14784 38.3127 2.5874 37.6211 2.5874Z" fill="#C8C8C8"/>
<path fill-rule="evenodd" clip-rule="evenodd" d="M31.5636 6.89209C30.872 6.89209 30.3115 7.45253 30.3115 8.14414V29.3931C30.3115 30.0848 30.872 30.6452 31.5636 30.6452C32.2552 30.6452 32.8156 30.0848 32.8156 29.3931V8.14414C32.8156 7.46445 32.2552 6.89209 31.5636 6.89209Z" fill="#C8C8C8"/>
<path fill-rule="evenodd" clip-rule="evenodd" d="M25.506 0C24.8143 0 24.2539 0.56044 24.2539 1.25205V36.2855C24.2539 36.9771 24.8143 37.5375 25.506 37.5375C26.1976 37.5375 26.758 36.9771 26.758 36.2855V1.25205C26.758 0.56044 26.1976 0 25.506 0Z" fill="#C8C8C8"/>
<path fill-rule="evenodd" clip-rule="evenodd" d="M19.4365 6.89209C18.7449 6.89209 18.1844 7.45253 18.1844 8.14414V29.3931C18.1844 30.0848 18.7449 30.6452 19.4365 30.6452C20.1281 30.6452 20.6885 30.0848 20.6885 29.3931V8.15606C20.6885 7.46445 20.1281 6.89209 19.4365 6.89209Z" fill="#C8C8C8"/>
<path fill-rule="evenodd" clip-rule="evenodd" d="M13.379 2.5874C12.6874 2.5874 12.127 3.14784 12.127 3.83945V33.7097C12.127 34.4013 12.6874 34.9617 13.379 34.9617C14.0706 34.9617 14.631 34.4013 14.631 33.7097V3.83945C14.631 3.14784 14.0706 2.5874 13.379 2.5874Z" fill="#C8C8C8"/>
</svg>
